%TF.GenerationSoftware,KiCad,Pcbnew,10.0.0*%
%TF.CreationDate,2026-04-10T20:12:56-07:00*%
%TF.ProjectId,mps_adapter,6d70735f-6164-4617-9074-65722e6b6963,1.0*%
%TF.SameCoordinates,Original*%
%TF.FileFunction,Legend,Bot*%
%TF.FilePolarity,Positive*%
%FSLAX46Y46*%
G04 Gerber Fmt 4.6, Leading zero omitted, Abs format (unit mm)*
G04 Created by KiCad (PCBNEW 10.0.0) date 2026-04-10 20:12:56*
%MOMM*%
%LPD*%
G01*
G04 APERTURE LIST*
%ADD10C,0.100000*%
%ADD11C,0.150000*%
%ADD12C,0.120000*%
%ADD13C,0.152400*%
%ADD14C,0.508000*%
G04 APERTURE END LIST*
D10*
X148400002Y-86874800D02*
X150400002Y-86874800D01*
X150400002Y-88000000D01*
X148400002Y-88000000D01*
X148400002Y-86874800D01*
X133096117Y-103122419D02*
X133096117Y-102122419D01*
X133096117Y-102122419D02*
X132715165Y-102122419D01*
X132715165Y-102122419D02*
X132619927Y-102170038D01*
X132619927Y-102170038D02*
X132572308Y-102217657D01*
X132572308Y-102217657D02*
X132524689Y-102312895D01*
X132524689Y-102312895D02*
X132524689Y-102455752D01*
X132524689Y-102455752D02*
X132572308Y-102550990D01*
X132572308Y-102550990D02*
X132619927Y-102598609D01*
X132619927Y-102598609D02*
X132715165Y-102646228D01*
X132715165Y-102646228D02*
X133096117Y-102646228D01*
X132143736Y-103074800D02*
X132000879Y-103122419D01*
X132000879Y-103122419D02*
X131762784Y-103122419D01*
X131762784Y-103122419D02*
X131667546Y-103074800D01*
X131667546Y-103074800D02*
X131619927Y-103027180D01*
X131619927Y-103027180D02*
X131572308Y-102931942D01*
X131572308Y-102931942D02*
X131572308Y-102836704D01*
X131572308Y-102836704D02*
X131619927Y-102741466D01*
X131619927Y-102741466D02*
X131667546Y-102693847D01*
X131667546Y-102693847D02*
X131762784Y-102646228D01*
X131762784Y-102646228D02*
X131953260Y-102598609D01*
X131953260Y-102598609D02*
X132048498Y-102550990D01*
X132048498Y-102550990D02*
X132096117Y-102503371D01*
X132096117Y-102503371D02*
X132143736Y-102408133D01*
X132143736Y-102408133D02*
X132143736Y-102312895D01*
X132143736Y-102312895D02*
X132096117Y-102217657D01*
X132096117Y-102217657D02*
X132048498Y-102170038D01*
X132048498Y-102170038D02*
X131953260Y-102122419D01*
X131953260Y-102122419D02*
X131715165Y-102122419D01*
X131715165Y-102122419D02*
X131572308Y-102170038D01*
X131381832Y-103217657D02*
X130619927Y-103217657D01*
X130191355Y-102122419D02*
X130000879Y-102122419D01*
X130000879Y-102122419D02*
X129905641Y-102170038D01*
X129905641Y-102170038D02*
X129810403Y-102265276D01*
X129810403Y-102265276D02*
X129762784Y-102455752D01*
X129762784Y-102455752D02*
X129762784Y-102789085D01*
X129762784Y-102789085D02*
X129810403Y-102979561D01*
X129810403Y-102979561D02*
X129905641Y-103074800D01*
X129905641Y-103074800D02*
X130000879Y-103122419D01*
X130000879Y-103122419D02*
X130191355Y-103122419D01*
X130191355Y-103122419D02*
X130286593Y-103074800D01*
X130286593Y-103074800D02*
X130381831Y-102979561D01*
X130381831Y-102979561D02*
X130429450Y-102789085D01*
X130429450Y-102789085D02*
X130429450Y-102455752D01*
X130429450Y-102455752D02*
X130381831Y-102265276D01*
X130381831Y-102265276D02*
X130286593Y-102170038D01*
X130286593Y-102170038D02*
X130191355Y-102122419D01*
X129334212Y-103122419D02*
X129334212Y-102122419D01*
X129334212Y-102122419D02*
X128762784Y-103122419D01*
X128762784Y-103122419D02*
X128762784Y-102122419D01*
X133234213Y-101844800D02*
X128624689Y-101844800D01*
X143096117Y-80622419D02*
X143096117Y-79622419D01*
X143096117Y-79622419D02*
X142858022Y-79622419D01*
X142858022Y-79622419D02*
X142715165Y-79670038D01*
X142715165Y-79670038D02*
X142619927Y-79765276D01*
X142619927Y-79765276D02*
X142572308Y-79860514D01*
X142572308Y-79860514D02*
X142524689Y-80050990D01*
X142524689Y-80050990D02*
X142524689Y-80193847D01*
X142524689Y-80193847D02*
X142572308Y-80384323D01*
X142572308Y-80384323D02*
X142619927Y-80479561D01*
X142619927Y-80479561D02*
X142715165Y-80574800D01*
X142715165Y-80574800D02*
X142858022Y-80622419D01*
X142858022Y-80622419D02*
X143096117Y-80622419D01*
X141715165Y-80574800D02*
X141810403Y-80622419D01*
X141810403Y-80622419D02*
X142000879Y-80622419D01*
X142000879Y-80622419D02*
X142096117Y-80574800D01*
X142096117Y-80574800D02*
X142143736Y-80479561D01*
X142143736Y-80479561D02*
X142143736Y-80098609D01*
X142143736Y-80098609D02*
X142096117Y-80003371D01*
X142096117Y-80003371D02*
X142000879Y-79955752D01*
X142000879Y-79955752D02*
X141810403Y-79955752D01*
X141810403Y-79955752D02*
X141715165Y-80003371D01*
X141715165Y-80003371D02*
X141667546Y-80098609D01*
X141667546Y-80098609D02*
X141667546Y-80193847D01*
X141667546Y-80193847D02*
X142143736Y-80289085D01*
X141096117Y-80622419D02*
X141191355Y-80574800D01*
X141191355Y-80574800D02*
X141238974Y-80479561D01*
X141238974Y-80479561D02*
X141238974Y-79622419D01*
X140572307Y-80622419D02*
X140667545Y-80574800D01*
X140667545Y-80574800D02*
X140715164Y-80479561D01*
X140715164Y-80479561D02*
X140715164Y-79622419D01*
X139429449Y-80622419D02*
X139429449Y-79622419D01*
X139429449Y-79622419D02*
X139096116Y-80336704D01*
X139096116Y-80336704D02*
X138762783Y-79622419D01*
X138762783Y-79622419D02*
X138762783Y-80622419D01*
X138286592Y-80622419D02*
X138286592Y-79622419D01*
X138286592Y-79622419D02*
X137905640Y-79622419D01*
X137905640Y-79622419D02*
X137810402Y-79670038D01*
X137810402Y-79670038D02*
X137762783Y-79717657D01*
X137762783Y-79717657D02*
X137715164Y-79812895D01*
X137715164Y-79812895D02*
X137715164Y-79955752D01*
X137715164Y-79955752D02*
X137762783Y-80050990D01*
X137762783Y-80050990D02*
X137810402Y-80098609D01*
X137810402Y-80098609D02*
X137905640Y-80146228D01*
X137905640Y-80146228D02*
X138286592Y-80146228D01*
X137334211Y-80574800D02*
X137191354Y-80622419D01*
X137191354Y-80622419D02*
X136953259Y-80622419D01*
X136953259Y-80622419D02*
X136858021Y-80574800D01*
X136858021Y-80574800D02*
X136810402Y-80527180D01*
X136810402Y-80527180D02*
X136762783Y-80431942D01*
X136762783Y-80431942D02*
X136762783Y-80336704D01*
X136762783Y-80336704D02*
X136810402Y-80241466D01*
X136810402Y-80241466D02*
X136858021Y-80193847D01*
X136858021Y-80193847D02*
X136953259Y-80146228D01*
X136953259Y-80146228D02*
X137143735Y-80098609D01*
X137143735Y-80098609D02*
X137238973Y-80050990D01*
X137238973Y-80050990D02*
X137286592Y-80003371D01*
X137286592Y-80003371D02*
X137334211Y-79908133D01*
X137334211Y-79908133D02*
X137334211Y-79812895D01*
X137334211Y-79812895D02*
X137286592Y-79717657D01*
X137286592Y-79717657D02*
X137238973Y-79670038D01*
X137238973Y-79670038D02*
X137143735Y-79622419D01*
X137143735Y-79622419D02*
X136905640Y-79622419D01*
X136905640Y-79622419D02*
X136762783Y-79670038D01*
X135905640Y-79622419D02*
X136096116Y-79622419D01*
X136096116Y-79622419D02*
X136191354Y-79670038D01*
X136191354Y-79670038D02*
X136238973Y-79717657D01*
X136238973Y-79717657D02*
X136334211Y-79860514D01*
X136334211Y-79860514D02*
X136381830Y-80050990D01*
X136381830Y-80050990D02*
X136381830Y-80431942D01*
X136381830Y-80431942D02*
X136334211Y-80527180D01*
X136334211Y-80527180D02*
X136286592Y-80574800D01*
X136286592Y-80574800D02*
X136191354Y-80622419D01*
X136191354Y-80622419D02*
X136000878Y-80622419D01*
X136000878Y-80622419D02*
X135905640Y-80574800D01*
X135905640Y-80574800D02*
X135858021Y-80527180D01*
X135858021Y-80527180D02*
X135810402Y-80431942D01*
X135810402Y-80431942D02*
X135810402Y-80193847D01*
X135810402Y-80193847D02*
X135858021Y-80098609D01*
X135858021Y-80098609D02*
X135905640Y-80050990D01*
X135905640Y-80050990D02*
X136000878Y-80003371D01*
X136000878Y-80003371D02*
X136191354Y-80003371D01*
X136191354Y-80003371D02*
X136286592Y-80050990D01*
X136286592Y-80050990D02*
X136334211Y-80098609D01*
X136334211Y-80098609D02*
X136381830Y-80193847D01*
X135191354Y-79622419D02*
X135096116Y-79622419D01*
X135096116Y-79622419D02*
X135000878Y-79670038D01*
X135000878Y-79670038D02*
X134953259Y-79717657D01*
X134953259Y-79717657D02*
X134905640Y-79812895D01*
X134905640Y-79812895D02*
X134858021Y-80003371D01*
X134858021Y-80003371D02*
X134858021Y-80241466D01*
X134858021Y-80241466D02*
X134905640Y-80431942D01*
X134905640Y-80431942D02*
X134953259Y-80527180D01*
X134953259Y-80527180D02*
X135000878Y-80574800D01*
X135000878Y-80574800D02*
X135096116Y-80622419D01*
X135096116Y-80622419D02*
X135191354Y-80622419D01*
X135191354Y-80622419D02*
X135286592Y-80574800D01*
X135286592Y-80574800D02*
X135334211Y-80527180D01*
X135334211Y-80527180D02*
X135381830Y-80431942D01*
X135381830Y-80431942D02*
X135429449Y-80241466D01*
X135429449Y-80241466D02*
X135429449Y-80003371D01*
X135429449Y-80003371D02*
X135381830Y-79812895D01*
X135381830Y-79812895D02*
X135334211Y-79717657D01*
X135334211Y-79717657D02*
X135286592Y-79670038D01*
X135286592Y-79670038D02*
X135191354Y-79622419D01*
X134238973Y-79622419D02*
X134143735Y-79622419D01*
X134143735Y-79622419D02*
X134048497Y-79670038D01*
X134048497Y-79670038D02*
X134000878Y-79717657D01*
X134000878Y-79717657D02*
X133953259Y-79812895D01*
X133953259Y-79812895D02*
X133905640Y-80003371D01*
X133905640Y-80003371D02*
X133905640Y-80241466D01*
X133905640Y-80241466D02*
X133953259Y-80431942D01*
X133953259Y-80431942D02*
X134000878Y-80527180D01*
X134000878Y-80527180D02*
X134048497Y-80574800D01*
X134048497Y-80574800D02*
X134143735Y-80622419D01*
X134143735Y-80622419D02*
X134238973Y-80622419D01*
X134238973Y-80622419D02*
X134334211Y-80574800D01*
X134334211Y-80574800D02*
X134381830Y-80527180D01*
X134381830Y-80527180D02*
X134429449Y-80431942D01*
X134429449Y-80431942D02*
X134477068Y-80241466D01*
X134477068Y-80241466D02*
X134477068Y-80003371D01*
X134477068Y-80003371D02*
X134429449Y-79812895D01*
X134429449Y-79812895D02*
X134381830Y-79717657D01*
X134381830Y-79717657D02*
X134334211Y-79670038D01*
X134334211Y-79670038D02*
X134238973Y-79622419D01*
X132762783Y-79574800D02*
X133619925Y-80860514D01*
X131905640Y-80622419D02*
X132477068Y-80622419D01*
X132191354Y-80622419D02*
X132191354Y-79622419D01*
X132191354Y-79622419D02*
X132286592Y-79765276D01*
X132286592Y-79765276D02*
X132381830Y-79860514D01*
X132381830Y-79860514D02*
X132477068Y-79908133D01*
X131286592Y-79622419D02*
X131191354Y-79622419D01*
X131191354Y-79622419D02*
X131096116Y-79670038D01*
X131096116Y-79670038D02*
X131048497Y-79717657D01*
X131048497Y-79717657D02*
X131000878Y-79812895D01*
X131000878Y-79812895D02*
X130953259Y-80003371D01*
X130953259Y-80003371D02*
X130953259Y-80241466D01*
X130953259Y-80241466D02*
X131000878Y-80431942D01*
X131000878Y-80431942D02*
X131048497Y-80527180D01*
X131048497Y-80527180D02*
X131096116Y-80574800D01*
X131096116Y-80574800D02*
X131191354Y-80622419D01*
X131191354Y-80622419D02*
X131286592Y-80622419D01*
X131286592Y-80622419D02*
X131381830Y-80574800D01*
X131381830Y-80574800D02*
X131429449Y-80527180D01*
X131429449Y-80527180D02*
X131477068Y-80431942D01*
X131477068Y-80431942D02*
X131524687Y-80241466D01*
X131524687Y-80241466D02*
X131524687Y-80003371D01*
X131524687Y-80003371D02*
X131477068Y-79812895D01*
X131477068Y-79812895D02*
X131429449Y-79717657D01*
X131429449Y-79717657D02*
X131381830Y-79670038D01*
X131381830Y-79670038D02*
X131286592Y-79622419D01*
X130334211Y-79622419D02*
X130238973Y-79622419D01*
X130238973Y-79622419D02*
X130143735Y-79670038D01*
X130143735Y-79670038D02*
X130096116Y-79717657D01*
X130096116Y-79717657D02*
X130048497Y-79812895D01*
X130048497Y-79812895D02*
X130000878Y-80003371D01*
X130000878Y-80003371D02*
X130000878Y-80241466D01*
X130000878Y-80241466D02*
X130048497Y-80431942D01*
X130048497Y-80431942D02*
X130096116Y-80527180D01*
X130096116Y-80527180D02*
X130143735Y-80574800D01*
X130143735Y-80574800D02*
X130238973Y-80622419D01*
X130238973Y-80622419D02*
X130334211Y-80622419D01*
X130334211Y-80622419D02*
X130429449Y-80574800D01*
X130429449Y-80574800D02*
X130477068Y-80527180D01*
X130477068Y-80527180D02*
X130524687Y-80431942D01*
X130524687Y-80431942D02*
X130572306Y-80241466D01*
X130572306Y-80241466D02*
X130572306Y-80003371D01*
X130572306Y-80003371D02*
X130524687Y-79812895D01*
X130524687Y-79812895D02*
X130477068Y-79717657D01*
X130477068Y-79717657D02*
X130429449Y-79670038D01*
X130429449Y-79670038D02*
X130334211Y-79622419D01*
X129381830Y-79622419D02*
X129286592Y-79622419D01*
X129286592Y-79622419D02*
X129191354Y-79670038D01*
X129191354Y-79670038D02*
X129143735Y-79717657D01*
X129143735Y-79717657D02*
X129096116Y-79812895D01*
X129096116Y-79812895D02*
X129048497Y-80003371D01*
X129048497Y-80003371D02*
X129048497Y-80241466D01*
X129048497Y-80241466D02*
X129096116Y-80431942D01*
X129096116Y-80431942D02*
X129143735Y-80527180D01*
X129143735Y-80527180D02*
X129191354Y-80574800D01*
X129191354Y-80574800D02*
X129286592Y-80622419D01*
X129286592Y-80622419D02*
X129381830Y-80622419D01*
X129381830Y-80622419D02*
X129477068Y-80574800D01*
X129477068Y-80574800D02*
X129524687Y-80527180D01*
X129524687Y-80527180D02*
X129572306Y-80431942D01*
X129572306Y-80431942D02*
X129619925Y-80241466D01*
X129619925Y-80241466D02*
X129619925Y-80003371D01*
X129619925Y-80003371D02*
X129572306Y-79812895D01*
X129572306Y-79812895D02*
X129524687Y-79717657D01*
X129524687Y-79717657D02*
X129477068Y-79670038D01*
X129477068Y-79670038D02*
X129381830Y-79622419D01*
X127858020Y-80622419D02*
X127858020Y-79622419D01*
X127858020Y-79622419D02*
X127477068Y-79622419D01*
X127477068Y-79622419D02*
X127381830Y-79670038D01*
X127381830Y-79670038D02*
X127334211Y-79717657D01*
X127334211Y-79717657D02*
X127286592Y-79812895D01*
X127286592Y-79812895D02*
X127286592Y-79955752D01*
X127286592Y-79955752D02*
X127334211Y-80050990D01*
X127334211Y-80050990D02*
X127381830Y-80098609D01*
X127381830Y-80098609D02*
X127477068Y-80146228D01*
X127477068Y-80146228D02*
X127858020Y-80146228D01*
X126905639Y-80574800D02*
X126762782Y-80622419D01*
X126762782Y-80622419D02*
X126524687Y-80622419D01*
X126524687Y-80622419D02*
X126429449Y-80574800D01*
X126429449Y-80574800D02*
X126381830Y-80527180D01*
X126381830Y-80527180D02*
X126334211Y-80431942D01*
X126334211Y-80431942D02*
X126334211Y-80336704D01*
X126334211Y-80336704D02*
X126381830Y-80241466D01*
X126381830Y-80241466D02*
X126429449Y-80193847D01*
X126429449Y-80193847D02*
X126524687Y-80146228D01*
X126524687Y-80146228D02*
X126715163Y-80098609D01*
X126715163Y-80098609D02*
X126810401Y-80050990D01*
X126810401Y-80050990D02*
X126858020Y-80003371D01*
X126858020Y-80003371D02*
X126905639Y-79908133D01*
X126905639Y-79908133D02*
X126905639Y-79812895D01*
X126905639Y-79812895D02*
X126858020Y-79717657D01*
X126858020Y-79717657D02*
X126810401Y-79670038D01*
X126810401Y-79670038D02*
X126715163Y-79622419D01*
X126715163Y-79622419D02*
X126477068Y-79622419D01*
X126477068Y-79622419D02*
X126334211Y-79670038D01*
X125905639Y-79622419D02*
X125905639Y-80431942D01*
X125905639Y-80431942D02*
X125858020Y-80527180D01*
X125858020Y-80527180D02*
X125810401Y-80574800D01*
X125810401Y-80574800D02*
X125715163Y-80622419D01*
X125715163Y-80622419D02*
X125524687Y-80622419D01*
X125524687Y-80622419D02*
X125429449Y-80574800D01*
X125429449Y-80574800D02*
X125381830Y-80527180D01*
X125381830Y-80527180D02*
X125334211Y-80431942D01*
X125334211Y-80431942D02*
X125334211Y-79622419D01*
X124143734Y-80336704D02*
X123667544Y-80336704D01*
X124238972Y-80622419D02*
X123905639Y-79622419D01*
X123905639Y-79622419D02*
X123572306Y-80622419D01*
X122810401Y-80622419D02*
X122810401Y-79622419D01*
X122810401Y-80574800D02*
X122905639Y-80622419D01*
X122905639Y-80622419D02*
X123096115Y-80622419D01*
X123096115Y-80622419D02*
X123191353Y-80574800D01*
X123191353Y-80574800D02*
X123238972Y-80527180D01*
X123238972Y-80527180D02*
X123286591Y-80431942D01*
X123286591Y-80431942D02*
X123286591Y-80146228D01*
X123286591Y-80146228D02*
X123238972Y-80050990D01*
X123238972Y-80050990D02*
X123191353Y-80003371D01*
X123191353Y-80003371D02*
X123096115Y-79955752D01*
X123096115Y-79955752D02*
X122905639Y-79955752D01*
X122905639Y-79955752D02*
X122810401Y-80003371D01*
X121905639Y-80622419D02*
X121905639Y-80098609D01*
X121905639Y-80098609D02*
X121953258Y-80003371D01*
X121953258Y-80003371D02*
X122048496Y-79955752D01*
X122048496Y-79955752D02*
X122238972Y-79955752D01*
X122238972Y-79955752D02*
X122334210Y-80003371D01*
X121905639Y-80574800D02*
X122000877Y-80622419D01*
X122000877Y-80622419D02*
X122238972Y-80622419D01*
X122238972Y-80622419D02*
X122334210Y-80574800D01*
X122334210Y-80574800D02*
X122381829Y-80479561D01*
X122381829Y-80479561D02*
X122381829Y-80384323D01*
X122381829Y-80384323D02*
X122334210Y-80289085D01*
X122334210Y-80289085D02*
X122238972Y-80241466D01*
X122238972Y-80241466D02*
X122000877Y-80241466D01*
X122000877Y-80241466D02*
X121905639Y-80193847D01*
X121429448Y-79955752D02*
X121429448Y-80955752D01*
X121429448Y-80003371D02*
X121334210Y-79955752D01*
X121334210Y-79955752D02*
X121143734Y-79955752D01*
X121143734Y-79955752D02*
X121048496Y-80003371D01*
X121048496Y-80003371D02*
X121000877Y-80050990D01*
X121000877Y-80050990D02*
X120953258Y-80146228D01*
X120953258Y-80146228D02*
X120953258Y-80431942D01*
X120953258Y-80431942D02*
X121000877Y-80527180D01*
X121000877Y-80527180D02*
X121048496Y-80574800D01*
X121048496Y-80574800D02*
X121143734Y-80622419D01*
X121143734Y-80622419D02*
X121334210Y-80622419D01*
X121334210Y-80622419D02*
X121429448Y-80574800D01*
X120667543Y-79955752D02*
X120286591Y-79955752D01*
X120524686Y-79622419D02*
X120524686Y-80479561D01*
X120524686Y-80479561D02*
X120477067Y-80574800D01*
X120477067Y-80574800D02*
X120381829Y-80622419D01*
X120381829Y-80622419D02*
X120286591Y-80622419D01*
X119572305Y-80574800D02*
X119667543Y-80622419D01*
X119667543Y-80622419D02*
X119858019Y-80622419D01*
X119858019Y-80622419D02*
X119953257Y-80574800D01*
X119953257Y-80574800D02*
X120000876Y-80479561D01*
X120000876Y-80479561D02*
X120000876Y-80098609D01*
X120000876Y-80098609D02*
X119953257Y-80003371D01*
X119953257Y-80003371D02*
X119858019Y-79955752D01*
X119858019Y-79955752D02*
X119667543Y-79955752D01*
X119667543Y-79955752D02*
X119572305Y-80003371D01*
X119572305Y-80003371D02*
X119524686Y-80098609D01*
X119524686Y-80098609D02*
X119524686Y-80193847D01*
X119524686Y-80193847D02*
X120000876Y-80289085D01*
X119096114Y-80622419D02*
X119096114Y-79955752D01*
X119096114Y-80146228D02*
X119048495Y-80050990D01*
X119048495Y-80050990D02*
X119000876Y-80003371D01*
X119000876Y-80003371D02*
X118905638Y-79955752D01*
X118905638Y-79955752D02*
X118810400Y-79955752D01*
X170596117Y-103598609D02*
X170262784Y-103598609D01*
X170119927Y-104122419D02*
X170596117Y-104122419D01*
X170596117Y-104122419D02*
X170596117Y-103122419D01*
X170596117Y-103122419D02*
X170119927Y-103122419D01*
X169786593Y-103455752D02*
X169548498Y-104122419D01*
X169548498Y-104122419D02*
X169310403Y-103455752D01*
X168500879Y-104122419D02*
X168500879Y-103598609D01*
X168500879Y-103598609D02*
X168548498Y-103503371D01*
X168548498Y-103503371D02*
X168643736Y-103455752D01*
X168643736Y-103455752D02*
X168834212Y-103455752D01*
X168834212Y-103455752D02*
X168929450Y-103503371D01*
X168500879Y-104074800D02*
X168596117Y-104122419D01*
X168596117Y-104122419D02*
X168834212Y-104122419D01*
X168834212Y-104122419D02*
X168929450Y-104074800D01*
X168929450Y-104074800D02*
X168977069Y-103979561D01*
X168977069Y-103979561D02*
X168977069Y-103884323D01*
X168977069Y-103884323D02*
X168929450Y-103789085D01*
X168929450Y-103789085D02*
X168834212Y-103741466D01*
X168834212Y-103741466D02*
X168596117Y-103741466D01*
X168596117Y-103741466D02*
X168500879Y-103693847D01*
X168024688Y-103455752D02*
X168024688Y-104122419D01*
X168024688Y-103550990D02*
X167977069Y-103503371D01*
X167977069Y-103503371D02*
X167881831Y-103455752D01*
X167881831Y-103455752D02*
X167738974Y-103455752D01*
X167738974Y-103455752D02*
X167643736Y-103503371D01*
X167643736Y-103503371D02*
X167596117Y-103598609D01*
X167596117Y-103598609D02*
X167596117Y-104122419D01*
X165786593Y-104027180D02*
X165834212Y-104074800D01*
X165834212Y-104074800D02*
X165977069Y-104122419D01*
X165977069Y-104122419D02*
X166072307Y-104122419D01*
X166072307Y-104122419D02*
X166215164Y-104074800D01*
X166215164Y-104074800D02*
X166310402Y-103979561D01*
X166310402Y-103979561D02*
X166358021Y-103884323D01*
X166358021Y-103884323D02*
X166405640Y-103693847D01*
X166405640Y-103693847D02*
X166405640Y-103550990D01*
X166405640Y-103550990D02*
X166358021Y-103360514D01*
X166358021Y-103360514D02*
X166310402Y-103265276D01*
X166310402Y-103265276D02*
X166215164Y-103170038D01*
X166215164Y-103170038D02*
X166072307Y-103122419D01*
X166072307Y-103122419D02*
X165977069Y-103122419D01*
X165977069Y-103122419D02*
X165834212Y-103170038D01*
X165834212Y-103170038D02*
X165786593Y-103217657D01*
X165358021Y-104122419D02*
X165358021Y-103122419D01*
X164929450Y-104122419D02*
X164929450Y-103598609D01*
X164929450Y-103598609D02*
X164977069Y-103503371D01*
X164977069Y-103503371D02*
X165072307Y-103455752D01*
X165072307Y-103455752D02*
X165215164Y-103455752D01*
X165215164Y-103455752D02*
X165310402Y-103503371D01*
X165310402Y-103503371D02*
X165358021Y-103550990D01*
X164310402Y-104122419D02*
X164405640Y-104074800D01*
X164405640Y-104074800D02*
X164453259Y-104027180D01*
X164453259Y-104027180D02*
X164500878Y-103931942D01*
X164500878Y-103931942D02*
X164500878Y-103646228D01*
X164500878Y-103646228D02*
X164453259Y-103550990D01*
X164453259Y-103550990D02*
X164405640Y-103503371D01*
X164405640Y-103503371D02*
X164310402Y-103455752D01*
X164310402Y-103455752D02*
X164167545Y-103455752D01*
X164167545Y-103455752D02*
X164072307Y-103503371D01*
X164072307Y-103503371D02*
X164024688Y-103550990D01*
X164024688Y-103550990D02*
X163977069Y-103646228D01*
X163977069Y-103646228D02*
X163977069Y-103931942D01*
X163977069Y-103931942D02*
X164024688Y-104027180D01*
X164024688Y-104027180D02*
X164072307Y-104074800D01*
X164072307Y-104074800D02*
X164167545Y-104122419D01*
X164167545Y-104122419D02*
X164310402Y-104122419D01*
X163119926Y-104122419D02*
X163119926Y-103122419D01*
X163119926Y-104074800D02*
X163215164Y-104122419D01*
X163215164Y-104122419D02*
X163405640Y-104122419D01*
X163405640Y-104122419D02*
X163500878Y-104074800D01*
X163500878Y-104074800D02*
X163548497Y-104027180D01*
X163548497Y-104027180D02*
X163596116Y-103931942D01*
X163596116Y-103931942D02*
X163596116Y-103646228D01*
X163596116Y-103646228D02*
X163548497Y-103550990D01*
X163548497Y-103550990D02*
X163500878Y-103503371D01*
X163500878Y-103503371D02*
X163405640Y-103455752D01*
X163405640Y-103455752D02*
X163215164Y-103455752D01*
X163215164Y-103455752D02*
X163119926Y-103503371D01*
X162500878Y-104122419D02*
X162596116Y-104074800D01*
X162596116Y-104074800D02*
X162643735Y-104027180D01*
X162643735Y-104027180D02*
X162691354Y-103931942D01*
X162691354Y-103931942D02*
X162691354Y-103646228D01*
X162691354Y-103646228D02*
X162643735Y-103550990D01*
X162643735Y-103550990D02*
X162596116Y-103503371D01*
X162596116Y-103503371D02*
X162500878Y-103455752D01*
X162500878Y-103455752D02*
X162358021Y-103455752D01*
X162358021Y-103455752D02*
X162262783Y-103503371D01*
X162262783Y-103503371D02*
X162215164Y-103550990D01*
X162215164Y-103550990D02*
X162167545Y-103646228D01*
X162167545Y-103646228D02*
X162167545Y-103931942D01*
X162167545Y-103931942D02*
X162215164Y-104027180D01*
X162215164Y-104027180D02*
X162262783Y-104074800D01*
X162262783Y-104074800D02*
X162358021Y-104122419D01*
X162358021Y-104122419D02*
X162500878Y-104122419D01*
X161738973Y-104122419D02*
X161738973Y-103455752D01*
X161738973Y-103646228D02*
X161691354Y-103550990D01*
X161691354Y-103550990D02*
X161643735Y-103503371D01*
X161643735Y-103503371D02*
X161548497Y-103455752D01*
X161548497Y-103455752D02*
X161453259Y-103455752D01*
X160691354Y-104122419D02*
X160691354Y-103598609D01*
X160691354Y-103598609D02*
X160738973Y-103503371D01*
X160738973Y-103503371D02*
X160834211Y-103455752D01*
X160834211Y-103455752D02*
X161024687Y-103455752D01*
X161024687Y-103455752D02*
X161119925Y-103503371D01*
X160691354Y-104074800D02*
X160786592Y-104122419D01*
X160786592Y-104122419D02*
X161024687Y-104122419D01*
X161024687Y-104122419D02*
X161119925Y-104074800D01*
X161119925Y-104074800D02*
X161167544Y-103979561D01*
X161167544Y-103979561D02*
X161167544Y-103884323D01*
X161167544Y-103884323D02*
X161119925Y-103789085D01*
X161119925Y-103789085D02*
X161024687Y-103741466D01*
X161024687Y-103741466D02*
X160786592Y-103741466D01*
X160786592Y-103741466D02*
X160691354Y-103693847D01*
X160167544Y-104074800D02*
X160167544Y-104122419D01*
X160167544Y-104122419D02*
X160215163Y-104217657D01*
X160215163Y-104217657D02*
X160262782Y-104265276D01*
X159024687Y-103217657D02*
X158977068Y-103170038D01*
X158977068Y-103170038D02*
X158881830Y-103122419D01*
X158881830Y-103122419D02*
X158643735Y-103122419D01*
X158643735Y-103122419D02*
X158548497Y-103170038D01*
X158548497Y-103170038D02*
X158500878Y-103217657D01*
X158500878Y-103217657D02*
X158453259Y-103312895D01*
X158453259Y-103312895D02*
X158453259Y-103408133D01*
X158453259Y-103408133D02*
X158500878Y-103550990D01*
X158500878Y-103550990D02*
X159072306Y-104122419D01*
X159072306Y-104122419D02*
X158453259Y-104122419D01*
X157834211Y-103122419D02*
X157738973Y-103122419D01*
X157738973Y-103122419D02*
X157643735Y-103170038D01*
X157643735Y-103170038D02*
X157596116Y-103217657D01*
X157596116Y-103217657D02*
X157548497Y-103312895D01*
X157548497Y-103312895D02*
X157500878Y-103503371D01*
X157500878Y-103503371D02*
X157500878Y-103741466D01*
X157500878Y-103741466D02*
X157548497Y-103931942D01*
X157548497Y-103931942D02*
X157596116Y-104027180D01*
X157596116Y-104027180D02*
X157643735Y-104074800D01*
X157643735Y-104074800D02*
X157738973Y-104122419D01*
X157738973Y-104122419D02*
X157834211Y-104122419D01*
X157834211Y-104122419D02*
X157929449Y-104074800D01*
X157929449Y-104074800D02*
X157977068Y-104027180D01*
X157977068Y-104027180D02*
X158024687Y-103931942D01*
X158024687Y-103931942D02*
X158072306Y-103741466D01*
X158072306Y-103741466D02*
X158072306Y-103503371D01*
X158072306Y-103503371D02*
X158024687Y-103312895D01*
X158024687Y-103312895D02*
X157977068Y-103217657D01*
X157977068Y-103217657D02*
X157929449Y-103170038D01*
X157929449Y-103170038D02*
X157834211Y-103122419D01*
X157119925Y-103217657D02*
X157072306Y-103170038D01*
X157072306Y-103170038D02*
X156977068Y-103122419D01*
X156977068Y-103122419D02*
X156738973Y-103122419D01*
X156738973Y-103122419D02*
X156643735Y-103170038D01*
X156643735Y-103170038D02*
X156596116Y-103217657D01*
X156596116Y-103217657D02*
X156548497Y-103312895D01*
X156548497Y-103312895D02*
X156548497Y-103408133D01*
X156548497Y-103408133D02*
X156596116Y-103550990D01*
X156596116Y-103550990D02*
X157167544Y-104122419D01*
X157167544Y-104122419D02*
X156548497Y-104122419D01*
X155691354Y-103122419D02*
X155881830Y-103122419D01*
X155881830Y-103122419D02*
X155977068Y-103170038D01*
X155977068Y-103170038D02*
X156024687Y-103217657D01*
X156024687Y-103217657D02*
X156119925Y-103360514D01*
X156119925Y-103360514D02*
X156167544Y-103550990D01*
X156167544Y-103550990D02*
X156167544Y-103931942D01*
X156167544Y-103931942D02*
X156119925Y-104027180D01*
X156119925Y-104027180D02*
X156072306Y-104074800D01*
X156072306Y-104074800D02*
X155977068Y-104122419D01*
X155977068Y-104122419D02*
X155786592Y-104122419D01*
X155786592Y-104122419D02*
X155691354Y-104074800D01*
X155691354Y-104074800D02*
X155643735Y-104027180D01*
X155643735Y-104027180D02*
X155596116Y-103931942D01*
X155596116Y-103931942D02*
X155596116Y-103693847D01*
X155596116Y-103693847D02*
X155643735Y-103598609D01*
X155643735Y-103598609D02*
X155691354Y-103550990D01*
X155691354Y-103550990D02*
X155786592Y-103503371D01*
X155786592Y-103503371D02*
X155977068Y-103503371D01*
X155977068Y-103503371D02*
X156072306Y-103550990D01*
X156072306Y-103550990D02*
X156119925Y-103598609D01*
X156119925Y-103598609D02*
X156167544Y-103693847D01*
D11*
X148966670Y-93295179D02*
X148966670Y-92580894D01*
X148966670Y-92580894D02*
X148919051Y-92438037D01*
X148919051Y-92438037D02*
X148823813Y-92342799D01*
X148823813Y-92342799D02*
X148680956Y-92295179D01*
X148680956Y-92295179D02*
X148585718Y-92295179D01*
X149966670Y-92295179D02*
X149395242Y-92295179D01*
X149680956Y-92295179D02*
X149680956Y-93295179D01*
X149680956Y-93295179D02*
X149585718Y-93152322D01*
X149585718Y-93152322D02*
X149490480Y-93057084D01*
X149490480Y-93057084D02*
X149395242Y-93009465D01*
%TO.C,J6*%
D12*
X134480002Y-101370000D02*
X134480002Y-102750000D01*
X135860002Y-101370000D02*
X134480002Y-101370000D01*
X137130002Y-101370000D02*
X137130002Y-104130000D01*
X137130002Y-101370000D02*
X139780002Y-101370000D01*
X137130002Y-104130000D02*
X139780002Y-104130000D01*
X139780002Y-101370000D02*
X139780002Y-104130000D01*
%TO.C,J1*%
D13*
X131367604Y-86624800D02*
X167232404Y-86624800D01*
X131367604Y-97877000D02*
X131367604Y-86624800D01*
X167232404Y-86624800D02*
X167232404Y-97877000D01*
X167232404Y-97877000D02*
X131367604Y-97877000D01*
D14*
X129716604Y-95499999D02*
G75*
G02*
X128954604Y-95499999I-381000J0D01*
G01*
X128954604Y-95499999D02*
G75*
G02*
X129716604Y-95499999I381000J0D01*
G01*
%TD*%
M02*
