%TF.GenerationSoftware,KiCad,Pcbnew,10.0.0*%
%TF.CreationDate,2026-04-10T20:12:56-07:00*%
%TF.ProjectId,mps_adapter,6d70735f-6164-4617-9074-65722e6b6963,1.0*%
%TF.SameCoordinates,Original*%
%TF.FileFunction,Copper,L1,Top*%
%TF.FilePolarity,Positive*%
%FSLAX46Y46*%
G04 Gerber Fmt 4.6, Leading zero omitted, Abs format (unit mm)*
G04 Created by KiCad (PCBNEW 10.0.0) date 2026-04-10 20:12:56*
%MOMM*%
%LPD*%
G01*
G04 APERTURE LIST*
%TA.AperFunction,ComponentPad*%
%ADD10C,1.905000*%
%TD*%
%TA.AperFunction,ComponentPad*%
%ADD11R,1.700000X1.700000*%
%TD*%
%TA.AperFunction,ComponentPad*%
%ADD12C,1.700000*%
%TD*%
%TA.AperFunction,ComponentPad*%
%ADD13C,1.955800*%
%TD*%
G04 APERTURE END LIST*
D10*
%TO.P,J2,1,1_1*%
%TO.N,/+54*%
X110400002Y-99890000D03*
%TO.P,J2,2,2_2*%
%TO.N,GND*%
X110400002Y-94810000D03*
%TO.P,J2,3,3_3*%
X110400002Y-89730000D03*
%TO.P,J2,4,4_4*%
%TO.N,/+54*%
X110400002Y-84650000D03*
%TD*%
%TO.P,J3,1,1_1*%
%TO.N,/+54*%
X124400002Y-84630000D03*
%TO.P,J3,2,2_2*%
%TO.N,GND*%
X124400002Y-89710000D03*
%TO.P,J3,3,3_3*%
X124400002Y-94790000D03*
%TO.P,J3,4,4_4*%
%TO.N,/+54*%
X124400002Y-99870000D03*
%TD*%
%TO.P,J4,1,1_1*%
%TO.N,/+54*%
X174400002Y-99890000D03*
%TO.P,J4,2,2_2*%
%TO.N,GND*%
X174400002Y-94810000D03*
%TO.P,J4,3,3_3*%
X174400002Y-89730000D03*
%TO.P,J4,4,4_4*%
%TO.N,/+54*%
X174400002Y-84650000D03*
%TD*%
%TO.P,J5,1,1_1*%
%TO.N,/+54*%
X188400002Y-84630000D03*
%TO.P,J5,2,2_2*%
%TO.N,GND*%
X188400002Y-89710000D03*
%TO.P,J5,3,3_3*%
X188400002Y-94790000D03*
%TO.P,J5,4,4_4*%
%TO.N,/+54*%
X188400002Y-99870000D03*
%TD*%
D11*
%TO.P,J6,1,Pin_1_1*%
%TO.N,GND*%
X135860002Y-102750000D03*
D12*
%TO.P,J6,2,Pin_2_2*%
%TO.N,/~{PS_ON}*%
X138400002Y-102750000D03*
%TD*%
D13*
%TO.P,J1,1,1_1*%
%TO.N,GND*%
X134600005Y-95499999D03*
%TO.P,J1,2,2_2*%
%TO.N,unconnected-(J1-Pad2)*%
X138800005Y-95499999D03*
%TO.P,J1,3,3_3*%
%TO.N,/~{PS_ON}*%
X143000004Y-95499999D03*
%TO.P,J1,4,4_4*%
%TO.N,/+54*%
X147200003Y-95499999D03*
%TO.P,J1,5,5_5*%
%TO.N,unconnected-(J1-Pad5)*%
X151400002Y-95499999D03*
%TO.P,J1,6,6_6*%
%TO.N,unconnected-(J1-Pad6)*%
X155600001Y-95499999D03*
%TO.P,J1,7,7_7*%
%TO.N,unconnected-(J1-Pad7)*%
X159800001Y-95499999D03*
%TO.P,J1,8,8_8*%
%TO.N,unconnected-(J1-Pad8)*%
X164000000Y-95499999D03*
%TO.P,J1,9,9_9*%
%TO.N,GND*%
X134600005Y-90000000D03*
%TO.P,J1,10,10_10*%
X138800005Y-90000000D03*
%TO.P,J1,11,11_11*%
X143000004Y-90000000D03*
%TO.P,J1,12,12_12*%
%TO.N,/+54*%
X147200003Y-90000000D03*
%TO.P,J1,13,13_13*%
X151400002Y-90000000D03*
%TO.P,J1,14,14_14*%
X155600001Y-90000000D03*
%TO.P,J1,15,15_15*%
%TO.N,unconnected-(J1-Pad15)*%
X159800001Y-90000000D03*
%TO.P,J1,16,16_16*%
%TO.N,unconnected-(J1-Pad16)*%
X164000000Y-90000000D03*
%TD*%
%TA.AperFunction,Conductor*%
%TO.N,/+54*%
G36*
X199403034Y-77250648D02*
G01*
X199736931Y-77267052D01*
X199749039Y-77268245D01*
X199852148Y-77283539D01*
X200076701Y-77316849D01*
X200088619Y-77319219D01*
X200409953Y-77399709D01*
X200421590Y-77403240D01*
X200492808Y-77428722D01*
X200733469Y-77514832D01*
X200744690Y-77519479D01*
X201044165Y-77661120D01*
X201054873Y-77666844D01*
X201338990Y-77837137D01*
X201349108Y-77843897D01*
X201615172Y-78041224D01*
X201624578Y-78048944D01*
X201870015Y-78271395D01*
X201878606Y-78279986D01*
X202065757Y-78486475D01*
X202101057Y-78525423D01*
X202108777Y-78534829D01*
X202306104Y-78800893D01*
X202312864Y-78811011D01*
X202441778Y-79026092D01*
X202483150Y-79095116D01*
X202488887Y-79105848D01*
X202630516Y-79405297D01*
X202635172Y-79416540D01*
X202746761Y-79728411D01*
X202750294Y-79740055D01*
X202830779Y-80061369D01*
X202833153Y-80073305D01*
X202881756Y-80400962D01*
X202882949Y-80413071D01*
X202899353Y-80746966D01*
X202899502Y-80753051D01*
X202899502Y-103746948D01*
X202899353Y-103753033D01*
X202882949Y-104086928D01*
X202881756Y-104099037D01*
X202833153Y-104426694D01*
X202830779Y-104438630D01*
X202750294Y-104759944D01*
X202746761Y-104771588D01*
X202635172Y-105083459D01*
X202630516Y-105094702D01*
X202488887Y-105394151D01*
X202483150Y-105404883D01*
X202312864Y-105688988D01*
X202306104Y-105699106D01*
X202108777Y-105965170D01*
X202101057Y-105974576D01*
X201878613Y-106220006D01*
X201870008Y-106228611D01*
X201624578Y-106451055D01*
X201615172Y-106458775D01*
X201349108Y-106656102D01*
X201338990Y-106662862D01*
X201054885Y-106833148D01*
X201044153Y-106838885D01*
X200744704Y-106980514D01*
X200733461Y-106985170D01*
X200421590Y-107096759D01*
X200409946Y-107100292D01*
X200088632Y-107180777D01*
X200076696Y-107183151D01*
X199749039Y-107231754D01*
X199736930Y-107232947D01*
X199421991Y-107248419D01*
X199403033Y-107249351D01*
X199396951Y-107249500D01*
X99403053Y-107249500D01*
X99396970Y-107249351D01*
X99376902Y-107248365D01*
X99063073Y-107232947D01*
X99050964Y-107231754D01*
X98723307Y-107183151D01*
X98711371Y-107180777D01*
X98390057Y-107100292D01*
X98378413Y-107096759D01*
X98066542Y-106985170D01*
X98055303Y-106980515D01*
X97755846Y-106838883D01*
X97745123Y-106833150D01*
X97461013Y-106662862D01*
X97450895Y-106656102D01*
X97184831Y-106458775D01*
X97175425Y-106451055D01*
X97136477Y-106415755D01*
X96929988Y-106228604D01*
X96921397Y-106220013D01*
X96698946Y-105974576D01*
X96691226Y-105965170D01*
X96493899Y-105699106D01*
X96487139Y-105688988D01*
X96316846Y-105404871D01*
X96311122Y-105394163D01*
X96169481Y-105094688D01*
X96164831Y-105083459D01*
X96124520Y-104970798D01*
X96060780Y-104792656D01*
X96053242Y-104771588D01*
X96049709Y-104759944D01*
X96006851Y-104588845D01*
X95969221Y-104438617D01*
X95966850Y-104426694D01*
X95918247Y-104099037D01*
X95917054Y-104086927D01*
X95900651Y-103753032D01*
X95900502Y-103746948D01*
X95900502Y-103624038D01*
X97799502Y-103624038D01*
X97799502Y-103875962D01*
X97826084Y-104043793D01*
X97838912Y-104124785D01*
X97916762Y-104364383D01*
X98031134Y-104588848D01*
X98179203Y-104792649D01*
X98179207Y-104792654D01*
X98357347Y-104970794D01*
X98357352Y-104970798D01*
X98535119Y-105099952D01*
X98561157Y-105118870D01*
X98704186Y-105191747D01*
X98785618Y-105233239D01*
X98785620Y-105233239D01*
X98785623Y-105233241D01*
X99025217Y-105311090D01*
X99274040Y-105350500D01*
X99274041Y-105350500D01*
X99525963Y-105350500D01*
X99525964Y-105350500D01*
X99774787Y-105311090D01*
X100014381Y-105233241D01*
X100238847Y-105118870D01*
X100442658Y-104970793D01*
X100620795Y-104792656D01*
X100768872Y-104588845D01*
X100883243Y-104364379D01*
X100961092Y-104124785D01*
X101000502Y-103875962D01*
X101000502Y-103624038D01*
X100961092Y-103375215D01*
X100883243Y-103135621D01*
X100883241Y-103135618D01*
X100883241Y-103135616D01*
X100841749Y-103054184D01*
X100768872Y-102911155D01*
X100729008Y-102856287D01*
X100620800Y-102707350D01*
X100620796Y-102707345D01*
X100442656Y-102529205D01*
X100442651Y-102529201D01*
X100238850Y-102381132D01*
X100238849Y-102381131D01*
X100238847Y-102381130D01*
X100168749Y-102345413D01*
X100014385Y-102266760D01*
X99774787Y-102188910D01*
X99525964Y-102149500D01*
X99274040Y-102149500D01*
X99149628Y-102169205D01*
X99025216Y-102188910D01*
X98785618Y-102266760D01*
X98561153Y-102381132D01*
X98357352Y-102529201D01*
X98357347Y-102529205D01*
X98179207Y-102707345D01*
X98179203Y-102707350D01*
X98031134Y-102911151D01*
X97916762Y-103135616D01*
X97838912Y-103375214D01*
X97838912Y-103375215D01*
X97799502Y-103624038D01*
X95900502Y-103624038D01*
X95900502Y-101852135D01*
X134509502Y-101852135D01*
X134509502Y-103647870D01*
X134509503Y-103647876D01*
X134515910Y-103707483D01*
X134566204Y-103842328D01*
X134566208Y-103842335D01*
X134652454Y-103957544D01*
X134652457Y-103957547D01*
X134767666Y-104043793D01*
X134767673Y-104043797D01*
X134902519Y-104094091D01*
X134902518Y-104094091D01*
X134909446Y-104094835D01*
X134962129Y-104100500D01*
X136757874Y-104100499D01*
X136817485Y-104094091D01*
X136952333Y-104043796D01*
X137067548Y-103957546D01*
X137153798Y-103842331D01*
X137202812Y-103710916D01*
X137244683Y-103654984D01*
X137310147Y-103630566D01*
X137378420Y-103645417D01*
X137406675Y-103666569D01*
X137520215Y-103780109D01*
X137692181Y-103905048D01*
X137692183Y-103905049D01*
X137692186Y-103905051D01*
X137881590Y-104001557D01*
X138083759Y-104067246D01*
X138293715Y-104100500D01*
X138293716Y-104100500D01*
X138506288Y-104100500D01*
X138506289Y-104100500D01*
X138716245Y-104067246D01*
X138918414Y-104001557D01*
X139107818Y-103905051D01*
X139194140Y-103842335D01*
X139279788Y-103780109D01*
X139279790Y-103780106D01*
X139279794Y-103780104D01*
X139430106Y-103629792D01*
X139434286Y-103624038D01*
X147799502Y-103624038D01*
X147799502Y-103875962D01*
X147826084Y-104043793D01*
X147838912Y-104124785D01*
X147916762Y-104364383D01*
X148031134Y-104588848D01*
X148179203Y-104792649D01*
X148179207Y-104792654D01*
X148357347Y-104970794D01*
X148357352Y-104970798D01*
X148535119Y-105099952D01*
X148561157Y-105118870D01*
X148704186Y-105191747D01*
X148785618Y-105233239D01*
X148785620Y-105233239D01*
X148785623Y-105233241D01*
X149025217Y-105311090D01*
X149274040Y-105350500D01*
X149274041Y-105350500D01*
X149525963Y-105350500D01*
X149525964Y-105350500D01*
X149774787Y-105311090D01*
X150014381Y-105233241D01*
X150238847Y-105118870D01*
X150442658Y-104970793D01*
X150620795Y-104792656D01*
X150768872Y-104588845D01*
X150883243Y-104364379D01*
X150961092Y-104124785D01*
X151000502Y-103875962D01*
X151000502Y-103624038D01*
X197799502Y-103624038D01*
X197799502Y-103875962D01*
X197826084Y-104043793D01*
X197838912Y-104124785D01*
X197916762Y-104364383D01*
X198031134Y-104588848D01*
X198179203Y-104792649D01*
X198179207Y-104792654D01*
X198357347Y-104970794D01*
X198357352Y-104970798D01*
X198535119Y-105099952D01*
X198561157Y-105118870D01*
X198704186Y-105191747D01*
X198785618Y-105233239D01*
X198785620Y-105233239D01*
X198785623Y-105233241D01*
X199025217Y-105311090D01*
X199274040Y-105350500D01*
X199274041Y-105350500D01*
X199525963Y-105350500D01*
X199525964Y-105350500D01*
X199774787Y-105311090D01*
X200014381Y-105233241D01*
X200238847Y-105118870D01*
X200442658Y-104970793D01*
X200620795Y-104792656D01*
X200768872Y-104588845D01*
X200883243Y-104364379D01*
X200961092Y-104124785D01*
X201000502Y-103875962D01*
X201000502Y-103624038D01*
X200961092Y-103375215D01*
X200883243Y-103135621D01*
X200883241Y-103135618D01*
X200883241Y-103135616D01*
X200841749Y-103054184D01*
X200768872Y-102911155D01*
X200729008Y-102856287D01*
X200620800Y-102707350D01*
X200620796Y-102707345D01*
X200442656Y-102529205D01*
X200442651Y-102529201D01*
X200238850Y-102381132D01*
X200238849Y-102381131D01*
X200238847Y-102381130D01*
X200168749Y-102345413D01*
X200014385Y-102266760D01*
X199774787Y-102188910D01*
X199525964Y-102149500D01*
X199274040Y-102149500D01*
X199149628Y-102169205D01*
X199025216Y-102188910D01*
X198785618Y-102266760D01*
X198561153Y-102381132D01*
X198357352Y-102529201D01*
X198357347Y-102529205D01*
X198179207Y-102707345D01*
X198179203Y-102707350D01*
X198031134Y-102911151D01*
X197916762Y-103135616D01*
X197838912Y-103375214D01*
X197838912Y-103375215D01*
X197799502Y-103624038D01*
X151000502Y-103624038D01*
X150961092Y-103375215D01*
X150883243Y-103135621D01*
X150883241Y-103135618D01*
X150883241Y-103135616D01*
X150841749Y-103054184D01*
X150768872Y-102911155D01*
X150729008Y-102856287D01*
X150620800Y-102707350D01*
X150620796Y-102707345D01*
X150442656Y-102529205D01*
X150442651Y-102529201D01*
X150238850Y-102381132D01*
X150238849Y-102381131D01*
X150238847Y-102381130D01*
X150168749Y-102345413D01*
X150014385Y-102266760D01*
X149774787Y-102188910D01*
X149525964Y-102149500D01*
X149274040Y-102149500D01*
X149149628Y-102169205D01*
X149025216Y-102188910D01*
X148785618Y-102266760D01*
X148561153Y-102381132D01*
X148357352Y-102529201D01*
X148357347Y-102529205D01*
X148179207Y-102707345D01*
X148179203Y-102707350D01*
X148031134Y-102911151D01*
X147916762Y-103135616D01*
X147838912Y-103375214D01*
X147838912Y-103375215D01*
X147799502Y-103624038D01*
X139434286Y-103624038D01*
X139555053Y-103457816D01*
X139651559Y-103268412D01*
X139717248Y-103066243D01*
X139750502Y-102856287D01*
X139750502Y-102643713D01*
X139717248Y-102433757D01*
X139651559Y-102231588D01*
X139555053Y-102042184D01*
X139555051Y-102042181D01*
X139555050Y-102042179D01*
X139430111Y-101870213D01*
X139279788Y-101719890D01*
X139107822Y-101594951D01*
X138918416Y-101498444D01*
X138918415Y-101498443D01*
X138918414Y-101498443D01*
X138716245Y-101432754D01*
X138716243Y-101432753D01*
X138716242Y-101432753D01*
X138554959Y-101407208D01*
X138506289Y-101399500D01*
X138293715Y-101399500D01*
X138245044Y-101407208D01*
X138083762Y-101432753D01*
X137881587Y-101498444D01*
X137692181Y-101594951D01*
X137520217Y-101719889D01*
X137406675Y-101833431D01*
X137345352Y-101866915D01*
X137275660Y-101861931D01*
X137219727Y-101820059D01*
X137202812Y-101789082D01*
X137153799Y-101657671D01*
X137153795Y-101657664D01*
X137067549Y-101542455D01*
X137067546Y-101542452D01*
X136952337Y-101456206D01*
X136952330Y-101456202D01*
X136817484Y-101405908D01*
X136817485Y-101405908D01*
X136757885Y-101399501D01*
X136757883Y-101399500D01*
X136757875Y-101399500D01*
X136757866Y-101399500D01*
X134962131Y-101399500D01*
X134962125Y-101399501D01*
X134902518Y-101405908D01*
X134767673Y-101456202D01*
X134767666Y-101456206D01*
X134652457Y-101542452D01*
X134652454Y-101542455D01*
X134566208Y-101657664D01*
X134566204Y-101657671D01*
X134515910Y-101792517D01*
X134509503Y-101852116D01*
X134509502Y-101852135D01*
X95900502Y-101852135D01*
X95900502Y-99775686D01*
X108947502Y-99775686D01*
X108947502Y-100004313D01*
X108983267Y-100230124D01*
X108983267Y-100230125D01*
X109053919Y-100447568D01*
X109157713Y-100651276D01*
X109211349Y-100725098D01*
X109211349Y-100725099D01*
X109761839Y-100174608D01*
X109780999Y-100220864D01*
X109857441Y-100335268D01*
X109954734Y-100432561D01*
X110069138Y-100509003D01*
X110115392Y-100528161D01*
X109564901Y-101078651D01*
X109638727Y-101132288D01*
X109638733Y-101132292D01*
X109842433Y-101236082D01*
X110059877Y-101306734D01*
X110285689Y-101342500D01*
X110514315Y-101342500D01*
X110740126Y-101306734D01*
X110740127Y-101306734D01*
X110957570Y-101236082D01*
X111161278Y-101132288D01*
X111235100Y-101078651D01*
X110684611Y-100528162D01*
X110730866Y-100509003D01*
X110845270Y-100432561D01*
X110942563Y-100335268D01*
X111019005Y-100220864D01*
X111038163Y-100174609D01*
X111588653Y-100725099D01*
X111588653Y-100725098D01*
X111642290Y-100651276D01*
X111746084Y-100447568D01*
X111816736Y-100230125D01*
X111816736Y-100230124D01*
X111852502Y-100004313D01*
X111852502Y-99775690D01*
X111851634Y-99770210D01*
X111851634Y-99770207D01*
X111849334Y-99755686D01*
X122947502Y-99755686D01*
X122947502Y-99984313D01*
X122983267Y-100210124D01*
X122983267Y-100210125D01*
X123053919Y-100427568D01*
X123157713Y-100631276D01*
X123211349Y-100705098D01*
X123211349Y-100705099D01*
X123761839Y-100154608D01*
X123780999Y-100200864D01*
X123857441Y-100315268D01*
X123954734Y-100412561D01*
X124069138Y-100489003D01*
X124115392Y-100508161D01*
X123564901Y-101058651D01*
X123638727Y-101112288D01*
X123638733Y-101112292D01*
X123842433Y-101216082D01*
X124059877Y-101286734D01*
X124285689Y-101322500D01*
X124514315Y-101322500D01*
X124740126Y-101286734D01*
X124740127Y-101286734D01*
X124957570Y-101216082D01*
X125161278Y-101112288D01*
X125235100Y-101058651D01*
X125235101Y-101058651D01*
X124684611Y-100508162D01*
X124730866Y-100489003D01*
X124845270Y-100412561D01*
X124942563Y-100315268D01*
X125019005Y-100200864D01*
X125038163Y-100154609D01*
X125588653Y-100705099D01*
X125588653Y-100705098D01*
X125642290Y-100631276D01*
X125746084Y-100427568D01*
X125816736Y-100210125D01*
X125816736Y-100210124D01*
X125852502Y-99984313D01*
X125852502Y-99775686D01*
X172947502Y-99775686D01*
X172947502Y-100004313D01*
X172983267Y-100230124D01*
X172983267Y-100230125D01*
X173053919Y-100447568D01*
X173157713Y-100651276D01*
X173211349Y-100725098D01*
X173211349Y-100725099D01*
X173761839Y-100174608D01*
X173780999Y-100220864D01*
X173857441Y-100335268D01*
X173954734Y-100432561D01*
X174069138Y-100509003D01*
X174115392Y-100528161D01*
X173564901Y-101078651D01*
X173638727Y-101132288D01*
X173638733Y-101132292D01*
X173842433Y-101236082D01*
X174059877Y-101306734D01*
X174285689Y-101342500D01*
X174514315Y-101342500D01*
X174740126Y-101306734D01*
X174740127Y-101306734D01*
X174957570Y-101236082D01*
X175161278Y-101132288D01*
X175235100Y-101078651D01*
X174684611Y-100528162D01*
X174730866Y-100509003D01*
X174845270Y-100432561D01*
X174942563Y-100335268D01*
X175019005Y-100220864D01*
X175038163Y-100174609D01*
X175588653Y-100725099D01*
X175588653Y-100725098D01*
X175642290Y-100651276D01*
X175746084Y-100447568D01*
X175816736Y-100230125D01*
X175816736Y-100230124D01*
X175852502Y-100004313D01*
X175852502Y-99775690D01*
X175851634Y-99770210D01*
X175851634Y-99770207D01*
X175849334Y-99755686D01*
X186947502Y-99755686D01*
X186947502Y-99984313D01*
X186983267Y-100210124D01*
X186983267Y-100210125D01*
X187053919Y-100427568D01*
X187157713Y-100631276D01*
X187211349Y-100705098D01*
X187211349Y-100705099D01*
X187761839Y-100154608D01*
X187780999Y-100200864D01*
X187857441Y-100315268D01*
X187954734Y-100412561D01*
X188069138Y-100489003D01*
X188115392Y-100508161D01*
X187564901Y-101058651D01*
X187638727Y-101112288D01*
X187638733Y-101112292D01*
X187842433Y-101216082D01*
X188059877Y-101286734D01*
X188285689Y-101322500D01*
X188514315Y-101322500D01*
X188740126Y-101286734D01*
X188740127Y-101286734D01*
X188957570Y-101216082D01*
X189161278Y-101112288D01*
X189235101Y-101058651D01*
X188684611Y-100508162D01*
X188730866Y-100489003D01*
X188845270Y-100412561D01*
X188942563Y-100315268D01*
X189019005Y-100200864D01*
X189038164Y-100154609D01*
X189588653Y-100705098D01*
X189642290Y-100631276D01*
X189746084Y-100427568D01*
X189816736Y-100210125D01*
X189816736Y-100210124D01*
X189852502Y-99984313D01*
X189852502Y-99755686D01*
X189816736Y-99529875D01*
X189816736Y-99529874D01*
X189746084Y-99312431D01*
X189642294Y-99108731D01*
X189642290Y-99108725D01*
X189588653Y-99034900D01*
X189588653Y-99034899D01*
X189038163Y-99585389D01*
X189019005Y-99539136D01*
X188942563Y-99424732D01*
X188845270Y-99327439D01*
X188730866Y-99250997D01*
X188684610Y-99231837D01*
X189235101Y-98681347D01*
X189161278Y-98627711D01*
X188957570Y-98523917D01*
X188740126Y-98453265D01*
X188514315Y-98417500D01*
X188285689Y-98417500D01*
X188059877Y-98453265D01*
X188059876Y-98453265D01*
X187842433Y-98523917D01*
X187638721Y-98627713D01*
X187564902Y-98681346D01*
X187564901Y-98681347D01*
X188115392Y-99231837D01*
X188069138Y-99250997D01*
X187954734Y-99327439D01*
X187857441Y-99424732D01*
X187780999Y-99539136D01*
X187761839Y-99585390D01*
X187211349Y-99034899D01*
X187211348Y-99034900D01*
X187157715Y-99108719D01*
X187053919Y-99312431D01*
X186983267Y-99529874D01*
X186983267Y-99529875D01*
X186947502Y-99755686D01*
X175849334Y-99755686D01*
X175816736Y-99549875D01*
X175816736Y-99549874D01*
X175746084Y-99332431D01*
X175642294Y-99128731D01*
X175642290Y-99128725D01*
X175588653Y-99054900D01*
X175588653Y-99054899D01*
X175038163Y-99605389D01*
X175019005Y-99559136D01*
X174942563Y-99444732D01*
X174845270Y-99347439D01*
X174730866Y-99270997D01*
X174684610Y-99251837D01*
X175235101Y-98701347D01*
X175161278Y-98647711D01*
X174957570Y-98543917D01*
X174740126Y-98473265D01*
X174514315Y-98437500D01*
X174285689Y-98437500D01*
X174059877Y-98473265D01*
X174059876Y-98473265D01*
X173842433Y-98543917D01*
X173638721Y-98647713D01*
X173564902Y-98701346D01*
X173564901Y-98701347D01*
X174115392Y-99251837D01*
X174069138Y-99270997D01*
X173954734Y-99347439D01*
X173857441Y-99444732D01*
X173780999Y-99559136D01*
X173761839Y-99605390D01*
X173211349Y-99054899D01*
X173211348Y-99054900D01*
X173157715Y-99128719D01*
X173053919Y-99332431D01*
X172983267Y-99549874D01*
X172983267Y-99549875D01*
X172947502Y-99775686D01*
X125852502Y-99775686D01*
X125852502Y-99755686D01*
X125816736Y-99529875D01*
X125816736Y-99529874D01*
X125746084Y-99312431D01*
X125642294Y-99108731D01*
X125642290Y-99108725D01*
X125588653Y-99034900D01*
X125588653Y-99034899D01*
X125038163Y-99585389D01*
X125019005Y-99539136D01*
X124942563Y-99424732D01*
X124845270Y-99327439D01*
X124730866Y-99250997D01*
X124684610Y-99231837D01*
X125235101Y-98681347D01*
X125161278Y-98627711D01*
X124957570Y-98523917D01*
X124740126Y-98453265D01*
X124514315Y-98417500D01*
X124285689Y-98417500D01*
X124059877Y-98453265D01*
X124059876Y-98453265D01*
X123842433Y-98523917D01*
X123638721Y-98627713D01*
X123564902Y-98681346D01*
X123564901Y-98681347D01*
X124115392Y-99231837D01*
X124069138Y-99250997D01*
X123954734Y-99327439D01*
X123857441Y-99424732D01*
X123780999Y-99539136D01*
X123761839Y-99585390D01*
X123211349Y-99034899D01*
X123211348Y-99034900D01*
X123157715Y-99108719D01*
X123053919Y-99312431D01*
X122983267Y-99529874D01*
X122983267Y-99529875D01*
X122947502Y-99755686D01*
X111849334Y-99755686D01*
X111816736Y-99549875D01*
X111816736Y-99549874D01*
X111746084Y-99332431D01*
X111642294Y-99128731D01*
X111642290Y-99128725D01*
X111588653Y-99054900D01*
X111588653Y-99054899D01*
X111038163Y-99605389D01*
X111019005Y-99559136D01*
X110942563Y-99444732D01*
X110845270Y-99347439D01*
X110730866Y-99270997D01*
X110684610Y-99251837D01*
X111235101Y-98701347D01*
X111161278Y-98647711D01*
X110957570Y-98543917D01*
X110740126Y-98473265D01*
X110514315Y-98437500D01*
X110285689Y-98437500D01*
X110059877Y-98473265D01*
X110059876Y-98473265D01*
X109842433Y-98543917D01*
X109638721Y-98647713D01*
X109564902Y-98701346D01*
X109564901Y-98701347D01*
X110115392Y-99251837D01*
X110069138Y-99270997D01*
X109954734Y-99347439D01*
X109857441Y-99444732D01*
X109780999Y-99559136D01*
X109761839Y-99605390D01*
X109211349Y-99054899D01*
X109211348Y-99054900D01*
X109157715Y-99128719D01*
X109053919Y-99332431D01*
X108983267Y-99549874D01*
X108983267Y-99549875D01*
X108947502Y-99775686D01*
X95900502Y-99775686D01*
X95900502Y-94695646D01*
X108947002Y-94695646D01*
X108947002Y-94924354D01*
X108949117Y-94937709D01*
X108982780Y-95150246D01*
X108982780Y-95150249D01*
X109053452Y-95367755D01*
X109157162Y-95571297D01*
X109157285Y-95571538D01*
X109291716Y-95756566D01*
X109453436Y-95918286D01*
X109638464Y-96052717D01*
X109802992Y-96136548D01*
X109842246Y-96156549D01*
X110059753Y-96227221D01*
X110059754Y-96227221D01*
X110059757Y-96227222D01*
X110285648Y-96263000D01*
X110285649Y-96263000D01*
X110514355Y-96263000D01*
X110514356Y-96263000D01*
X110740247Y-96227222D01*
X110740250Y-96227221D01*
X110740251Y-96227221D01*
X110957757Y-96156549D01*
X110957757Y-96156548D01*
X110957760Y-96156548D01*
X111161540Y-96052717D01*
X111346568Y-95918286D01*
X111508288Y-95756566D01*
X111642719Y-95571538D01*
X111746550Y-95367758D01*
X111772190Y-95288845D01*
X111817223Y-95150249D01*
X111817223Y-95150248D01*
X111817224Y-95150245D01*
X111853002Y-94924354D01*
X111853002Y-94695646D01*
X111849834Y-94675646D01*
X122947002Y-94675646D01*
X122947002Y-94904353D01*
X122982780Y-95130246D01*
X122982780Y-95130249D01*
X123053452Y-95347755D01*
X123131025Y-95500000D01*
X123157285Y-95551538D01*
X123291716Y-95736566D01*
X123453436Y-95898286D01*
X123638464Y-96032717D01*
X123842244Y-96136548D01*
X123842246Y-96136549D01*
X124059753Y-96207221D01*
X124059754Y-96207221D01*
X124059757Y-96207222D01*
X124285648Y-96243000D01*
X124285649Y-96243000D01*
X124514355Y-96243000D01*
X124514356Y-96243000D01*
X124740247Y-96207222D01*
X124740250Y-96207221D01*
X124740251Y-96207221D01*
X124957757Y-96136549D01*
X124957757Y-96136548D01*
X124957760Y-96136548D01*
X125161540Y-96032717D01*
X125346568Y-95898286D01*
X125508288Y-95736566D01*
X125642719Y-95551538D01*
X125728267Y-95383640D01*
X133121605Y-95383640D01*
X133121605Y-95616357D01*
X133158007Y-95846192D01*
X133229919Y-96067512D01*
X133295429Y-96196080D01*
X133329526Y-96263000D01*
X133335566Y-96274853D01*
X133472338Y-96463105D01*
X133472342Y-96463110D01*
X133636893Y-96627661D01*
X133636898Y-96627665D01*
X133745867Y-96706835D01*
X133825154Y-96764440D01*
X133957271Y-96831757D01*
X134032491Y-96870084D01*
X134032493Y-96870084D01*
X134032496Y-96870086D01*
X134151127Y-96908631D01*
X134253811Y-96941996D01*
X134483647Y-96978399D01*
X134483652Y-96978399D01*
X134716363Y-96978399D01*
X134946198Y-96941996D01*
X134947703Y-96941507D01*
X135167514Y-96870086D01*
X135374856Y-96764440D01*
X135563118Y-96627660D01*
X135727666Y-96463112D01*
X135864446Y-96274850D01*
X135970092Y-96067508D01*
X136042002Y-95846192D01*
X136056197Y-95756567D01*
X136078405Y-95616357D01*
X136078405Y-95383640D01*
X137321605Y-95383640D01*
X137321605Y-95616357D01*
X137358007Y-95846192D01*
X137429919Y-96067512D01*
X137495429Y-96196080D01*
X137529526Y-96263000D01*
X137535566Y-96274853D01*
X137672338Y-96463105D01*
X137672342Y-96463110D01*
X137836893Y-96627661D01*
X137836898Y-96627665D01*
X137945867Y-96706835D01*
X138025154Y-96764440D01*
X138157271Y-96831757D01*
X138232491Y-96870084D01*
X138232493Y-96870084D01*
X138232496Y-96870086D01*
X138351127Y-96908631D01*
X138453811Y-96941996D01*
X138683647Y-96978399D01*
X138683652Y-96978399D01*
X138916363Y-96978399D01*
X139146198Y-96941996D01*
X139147703Y-96941507D01*
X139367514Y-96870086D01*
X139574856Y-96764440D01*
X139763118Y-96627660D01*
X139927666Y-96463112D01*
X140064446Y-96274850D01*
X140170092Y-96067508D01*
X140242002Y-95846192D01*
X140256197Y-95756567D01*
X140278405Y-95616357D01*
X140278405Y-95383640D01*
X141521604Y-95383640D01*
X141521604Y-95616357D01*
X141558006Y-95846192D01*
X141629918Y-96067512D01*
X141695428Y-96196080D01*
X141729525Y-96263000D01*
X141735565Y-96274853D01*
X141872337Y-96463105D01*
X141872341Y-96463110D01*
X142036892Y-96627661D01*
X142036897Y-96627665D01*
X142145866Y-96706835D01*
X142225153Y-96764440D01*
X142357270Y-96831757D01*
X142432490Y-96870084D01*
X142432492Y-96870084D01*
X142432495Y-96870086D01*
X142551126Y-96908631D01*
X142653810Y-96941996D01*
X142883646Y-96978399D01*
X142883651Y-96978399D01*
X143116362Y-96978399D01*
X143346197Y-96941996D01*
X143347702Y-96941507D01*
X143567513Y-96870086D01*
X143774855Y-96764440D01*
X143963117Y-96627660D01*
X144127665Y-96463112D01*
X144264445Y-96274850D01*
X144370091Y-96067508D01*
X144442001Y-95846192D01*
X144456196Y-95756567D01*
X144478404Y-95616357D01*
X144478404Y-95383686D01*
X145722103Y-95383686D01*
X145722103Y-95616311D01*
X145758494Y-95846076D01*
X145830377Y-96067313D01*
X145935992Y-96274590D01*
X145993164Y-96353281D01*
X145993165Y-96353282D01*
X146542400Y-95804047D01*
X146558491Y-95842894D01*
X146637713Y-95961459D01*
X146738543Y-96062289D01*
X146857108Y-96141511D01*
X146895953Y-96157601D01*
X146346718Y-96706835D01*
X146425414Y-96764011D01*
X146632688Y-96869624D01*
X146853925Y-96941507D01*
X147083691Y-96977899D01*
X147316315Y-96977899D01*
X147546080Y-96941507D01*
X147767317Y-96869624D01*
X147974583Y-96764015D01*
X147974589Y-96764011D01*
X148053285Y-96706835D01*
X148053286Y-96706835D01*
X147504051Y-96157601D01*
X147542898Y-96141511D01*
X147661463Y-96062289D01*
X147762293Y-95961459D01*
X147841515Y-95842894D01*
X147857605Y-95804048D01*
X148406839Y-96353282D01*
X148406839Y-96353281D01*
X148464015Y-96274585D01*
X148464019Y-96274579D01*
X148569628Y-96067313D01*
X148641511Y-95846076D01*
X148677903Y-95616311D01*
X148677903Y-95383686D01*
X148677896Y-95383640D01*
X149921602Y-95383640D01*
X149921602Y-95616357D01*
X149958004Y-95846192D01*
X150029916Y-96067512D01*
X150095426Y-96196080D01*
X150129523Y-96263000D01*
X150135563Y-96274853D01*
X150272335Y-96463105D01*
X150272339Y-96463110D01*
X150436890Y-96627661D01*
X150436895Y-96627665D01*
X150545864Y-96706835D01*
X150625151Y-96764440D01*
X150757268Y-96831757D01*
X150832488Y-96870084D01*
X150832490Y-96870084D01*
X150832493Y-96870086D01*
X150951124Y-96908631D01*
X151053808Y-96941996D01*
X151283644Y-96978399D01*
X151283649Y-96978399D01*
X151516360Y-96978399D01*
X151746195Y-96941996D01*
X151747700Y-96941507D01*
X151967511Y-96870086D01*
X152174853Y-96764440D01*
X152363115Y-96627660D01*
X152527663Y-96463112D01*
X152664443Y-96274850D01*
X152770089Y-96067508D01*
X152841999Y-95846192D01*
X152856194Y-95756567D01*
X152878402Y-95616357D01*
X152878402Y-95383640D01*
X154121601Y-95383640D01*
X154121601Y-95616357D01*
X154158003Y-95846192D01*
X154229915Y-96067512D01*
X154295425Y-96196080D01*
X154329522Y-96263000D01*
X154335562Y-96274853D01*
X154472334Y-96463105D01*
X154472338Y-96463110D01*
X154636889Y-96627661D01*
X154636894Y-96627665D01*
X154745863Y-96706835D01*
X154825150Y-96764440D01*
X154957267Y-96831757D01*
X155032487Y-96870084D01*
X155032489Y-96870084D01*
X155032492Y-96870086D01*
X155151123Y-96908631D01*
X155253807Y-96941996D01*
X155483643Y-96978399D01*
X155483648Y-96978399D01*
X155716359Y-96978399D01*
X155946194Y-96941996D01*
X155947699Y-96941507D01*
X156167510Y-96870086D01*
X156374852Y-96764440D01*
X156563114Y-96627660D01*
X156727662Y-96463112D01*
X156864442Y-96274850D01*
X156970088Y-96067508D01*
X157041998Y-95846192D01*
X157056193Y-95756567D01*
X157078401Y-95616357D01*
X157078401Y-95383640D01*
X158321601Y-95383640D01*
X158321601Y-95616357D01*
X158358003Y-95846192D01*
X158429915Y-96067512D01*
X158495425Y-96196080D01*
X158529522Y-96263000D01*
X158535562Y-96274853D01*
X158672334Y-96463105D01*
X158672338Y-96463110D01*
X158836889Y-96627661D01*
X158836894Y-96627665D01*
X158945863Y-96706835D01*
X159025150Y-96764440D01*
X159157267Y-96831757D01*
X159232487Y-96870084D01*
X159232489Y-96870084D01*
X159232492Y-96870086D01*
X159351123Y-96908631D01*
X159453807Y-96941996D01*
X159683643Y-96978399D01*
X159683648Y-96978399D01*
X159916359Y-96978399D01*
X160146194Y-96941996D01*
X160147699Y-96941507D01*
X160367510Y-96870086D01*
X160574852Y-96764440D01*
X160763114Y-96627660D01*
X160927662Y-96463112D01*
X161064442Y-96274850D01*
X161170088Y-96067508D01*
X161241998Y-95846192D01*
X161256193Y-95756567D01*
X161278401Y-95616357D01*
X161278401Y-95383640D01*
X162521600Y-95383640D01*
X162521600Y-95616357D01*
X162558002Y-95846192D01*
X162629914Y-96067512D01*
X162695424Y-96196080D01*
X162729521Y-96263000D01*
X162735561Y-96274853D01*
X162872333Y-96463105D01*
X162872337Y-96463110D01*
X163036888Y-96627661D01*
X163036893Y-96627665D01*
X163145862Y-96706835D01*
X163225149Y-96764440D01*
X163357266Y-96831757D01*
X163432486Y-96870084D01*
X163432488Y-96870084D01*
X163432491Y-96870086D01*
X163551122Y-96908631D01*
X163653806Y-96941996D01*
X163883642Y-96978399D01*
X163883647Y-96978399D01*
X164116358Y-96978399D01*
X164346193Y-96941996D01*
X164347698Y-96941507D01*
X164567509Y-96870086D01*
X164774851Y-96764440D01*
X164963113Y-96627660D01*
X165127661Y-96463112D01*
X165264441Y-96274850D01*
X165370087Y-96067508D01*
X165441997Y-95846192D01*
X165456192Y-95756567D01*
X165478400Y-95616357D01*
X165478400Y-95383640D01*
X165441997Y-95153805D01*
X165404544Y-95038539D01*
X165370087Y-94932490D01*
X165370085Y-94932487D01*
X165370085Y-94932485D01*
X165275610Y-94747069D01*
X165275609Y-94747067D01*
X165264440Y-94725146D01*
X165243007Y-94695646D01*
X172947002Y-94695646D01*
X172947002Y-94924354D01*
X172949117Y-94937709D01*
X172982780Y-95150246D01*
X172982780Y-95150249D01*
X173053452Y-95367755D01*
X173157162Y-95571297D01*
X173157285Y-95571538D01*
X173291716Y-95756566D01*
X173453436Y-95918286D01*
X173638464Y-96052717D01*
X173802992Y-96136548D01*
X173842246Y-96156549D01*
X174059753Y-96227221D01*
X174059754Y-96227221D01*
X174059757Y-96227222D01*
X174285648Y-96263000D01*
X174285649Y-96263000D01*
X174514355Y-96263000D01*
X174514356Y-96263000D01*
X174740247Y-96227222D01*
X174740250Y-96227221D01*
X174740251Y-96227221D01*
X174957757Y-96156549D01*
X174957757Y-96156548D01*
X174957760Y-96156548D01*
X175161540Y-96052717D01*
X175346568Y-95918286D01*
X175508288Y-95756566D01*
X175642719Y-95571538D01*
X175746550Y-95367758D01*
X175772190Y-95288845D01*
X175817223Y-95150249D01*
X175817223Y-95150248D01*
X175817224Y-95150245D01*
X175853002Y-94924354D01*
X175853002Y-94695646D01*
X175849834Y-94675646D01*
X186947002Y-94675646D01*
X186947002Y-94904353D01*
X186982780Y-95130246D01*
X186982780Y-95130249D01*
X187053452Y-95347755D01*
X187131025Y-95500000D01*
X187157285Y-95551538D01*
X187291716Y-95736566D01*
X187453436Y-95898286D01*
X187638464Y-96032717D01*
X187842244Y-96136548D01*
X187842246Y-96136549D01*
X188059753Y-96207221D01*
X188059754Y-96207221D01*
X188059757Y-96207222D01*
X188285648Y-96243000D01*
X188285649Y-96243000D01*
X188514355Y-96243000D01*
X188514356Y-96243000D01*
X188740247Y-96207222D01*
X188740250Y-96207221D01*
X188740251Y-96207221D01*
X188957757Y-96136549D01*
X188957757Y-96136548D01*
X188957760Y-96136548D01*
X189161540Y-96032717D01*
X189346568Y-95898286D01*
X189508288Y-95736566D01*
X189642719Y-95551538D01*
X189746550Y-95347758D01*
X189809569Y-95153805D01*
X189817223Y-95130249D01*
X189817223Y-95130248D01*
X189817224Y-95130245D01*
X189853002Y-94904354D01*
X189853002Y-94675646D01*
X189817224Y-94449755D01*
X189817223Y-94449751D01*
X189817223Y-94449750D01*
X189746551Y-94232244D01*
X189657770Y-94058002D01*
X189642719Y-94028462D01*
X189508288Y-93843434D01*
X189346568Y-93681714D01*
X189161540Y-93547283D01*
X188957757Y-93443450D01*
X188740250Y-93372778D01*
X188570828Y-93345944D01*
X188514356Y-93337000D01*
X188285648Y-93337000D01*
X188210351Y-93348926D01*
X188059755Y-93372778D01*
X188059752Y-93372778D01*
X187842246Y-93443450D01*
X187638463Y-93547283D01*
X187610936Y-93567283D01*
X187453436Y-93681714D01*
X187453434Y-93681716D01*
X187453433Y-93681716D01*
X187291718Y-93843431D01*
X187291718Y-93843432D01*
X187291716Y-93843434D01*
X187233982Y-93922896D01*
X187157285Y-94028461D01*
X187053452Y-94232244D01*
X186982780Y-94449750D01*
X186982780Y-94449753D01*
X186947002Y-94675646D01*
X175849834Y-94675646D01*
X175817224Y-94469755D01*
X175817223Y-94469751D01*
X175817223Y-94469750D01*
X175746551Y-94252244D01*
X175738049Y-94235558D01*
X175642719Y-94048462D01*
X175508288Y-93863434D01*
X175346568Y-93701714D01*
X175161540Y-93567283D01*
X175122288Y-93547283D01*
X174957757Y-93463450D01*
X174740250Y-93392778D01*
X174570828Y-93365944D01*
X174514356Y-93357000D01*
X174285648Y-93357000D01*
X174210351Y-93368926D01*
X174059755Y-93392778D01*
X174059752Y-93392778D01*
X173842246Y-93463450D01*
X173638463Y-93567283D01*
X173532898Y-93643980D01*
X173453436Y-93701714D01*
X173453434Y-93701716D01*
X173453433Y-93701716D01*
X173291718Y-93863431D01*
X173291718Y-93863432D01*
X173291716Y-93863434D01*
X173233982Y-93942896D01*
X173157285Y-94048461D01*
X173053452Y-94252244D01*
X172982780Y-94469750D01*
X172982780Y-94469753D01*
X172982780Y-94469755D01*
X172947002Y-94695646D01*
X165243007Y-94695646D01*
X165127666Y-94536892D01*
X165127662Y-94536887D01*
X164963111Y-94372336D01*
X164963106Y-94372332D01*
X164774854Y-94235560D01*
X164774853Y-94235559D01*
X164774851Y-94235558D01*
X164710101Y-94202566D01*
X164567513Y-94129913D01*
X164346193Y-94058001D01*
X164116358Y-94021599D01*
X164116353Y-94021599D01*
X163883647Y-94021599D01*
X163883642Y-94021599D01*
X163653806Y-94058001D01*
X163432486Y-94129913D01*
X163225145Y-94235560D01*
X163036893Y-94372332D01*
X163036888Y-94372336D01*
X162872337Y-94536887D01*
X162872333Y-94536892D01*
X162735561Y-94725144D01*
X162629914Y-94932485D01*
X162558002Y-95153805D01*
X162521600Y-95383640D01*
X161278401Y-95383640D01*
X161241998Y-95153805D01*
X161204545Y-95038539D01*
X161170088Y-94932490D01*
X161170086Y-94932487D01*
X161170086Y-94932485D01*
X161104577Y-94803918D01*
X161064442Y-94725148D01*
X161007457Y-94646714D01*
X160927667Y-94536892D01*
X160927663Y-94536887D01*
X160763112Y-94372336D01*
X160763107Y-94372332D01*
X160574855Y-94235560D01*
X160574854Y-94235559D01*
X160574852Y-94235558D01*
X160510102Y-94202566D01*
X160367514Y-94129913D01*
X160146194Y-94058001D01*
X159916359Y-94021599D01*
X159916354Y-94021599D01*
X159683648Y-94021599D01*
X159683643Y-94021599D01*
X159453807Y-94058001D01*
X159232487Y-94129913D01*
X159025146Y-94235560D01*
X158836894Y-94372332D01*
X158836889Y-94372336D01*
X158672338Y-94536887D01*
X158672334Y-94536892D01*
X158535562Y-94725144D01*
X158429915Y-94932485D01*
X158358003Y-95153805D01*
X158321601Y-95383640D01*
X157078401Y-95383640D01*
X157041998Y-95153805D01*
X157004545Y-95038539D01*
X156970088Y-94932490D01*
X156970086Y-94932487D01*
X156970086Y-94932485D01*
X156904577Y-94803918D01*
X156864442Y-94725148D01*
X156807457Y-94646714D01*
X156727667Y-94536892D01*
X156727663Y-94536887D01*
X156563112Y-94372336D01*
X156563107Y-94372332D01*
X156374855Y-94235560D01*
X156374854Y-94235559D01*
X156374852Y-94235558D01*
X156310102Y-94202566D01*
X156167514Y-94129913D01*
X155946194Y-94058001D01*
X155716359Y-94021599D01*
X155716354Y-94021599D01*
X155483648Y-94021599D01*
X155483643Y-94021599D01*
X155253807Y-94058001D01*
X155032487Y-94129913D01*
X154825146Y-94235560D01*
X154636894Y-94372332D01*
X154636889Y-94372336D01*
X154472338Y-94536887D01*
X154472334Y-94536892D01*
X154335562Y-94725144D01*
X154229915Y-94932485D01*
X154158003Y-95153805D01*
X154121601Y-95383640D01*
X152878402Y-95383640D01*
X152841999Y-95153805D01*
X152804546Y-95038539D01*
X152770089Y-94932490D01*
X152770087Y-94932487D01*
X152770087Y-94932485D01*
X152704578Y-94803918D01*
X152664443Y-94725148D01*
X152607458Y-94646714D01*
X152527668Y-94536892D01*
X152527664Y-94536887D01*
X152363113Y-94372336D01*
X152363108Y-94372332D01*
X152174856Y-94235560D01*
X152174855Y-94235559D01*
X152174853Y-94235558D01*
X152110103Y-94202566D01*
X151967515Y-94129913D01*
X151746195Y-94058001D01*
X151516360Y-94021599D01*
X151516355Y-94021599D01*
X151283649Y-94021599D01*
X151283644Y-94021599D01*
X151053808Y-94058001D01*
X150832488Y-94129913D01*
X150625147Y-94235560D01*
X150436895Y-94372332D01*
X150436890Y-94372336D01*
X150272339Y-94536887D01*
X150272335Y-94536892D01*
X150135563Y-94725144D01*
X150029916Y-94932485D01*
X149958004Y-95153805D01*
X149921602Y-95383640D01*
X148677896Y-95383640D01*
X148641511Y-95153921D01*
X148569628Y-94932684D01*
X148464015Y-94725410D01*
X148406839Y-94646715D01*
X148406839Y-94646714D01*
X147857605Y-95195949D01*
X147841515Y-95157104D01*
X147762293Y-95038539D01*
X147661463Y-94937709D01*
X147542898Y-94858487D01*
X147504051Y-94842396D01*
X148053286Y-94293161D01*
X148053285Y-94293160D01*
X147974594Y-94235988D01*
X147767317Y-94130373D01*
X147546080Y-94058490D01*
X147316315Y-94022099D01*
X147083691Y-94022099D01*
X146853925Y-94058490D01*
X146632688Y-94130373D01*
X146425418Y-94235984D01*
X146346719Y-94293161D01*
X146895954Y-94842396D01*
X146857108Y-94858487D01*
X146738543Y-94937709D01*
X146637713Y-95038539D01*
X146558491Y-95157104D01*
X146542400Y-95195949D01*
X145993165Y-94646715D01*
X145935988Y-94725414D01*
X145830377Y-94932684D01*
X145758494Y-95153921D01*
X145722103Y-95383686D01*
X144478404Y-95383686D01*
X144478404Y-95383640D01*
X144442001Y-95153805D01*
X144404548Y-95038539D01*
X144370091Y-94932490D01*
X144370089Y-94932487D01*
X144370089Y-94932485D01*
X144304580Y-94803918D01*
X144264445Y-94725148D01*
X144207460Y-94646714D01*
X144127670Y-94536892D01*
X144127666Y-94536887D01*
X143963115Y-94372336D01*
X143963110Y-94372332D01*
X143774858Y-94235560D01*
X143774857Y-94235559D01*
X143774855Y-94235558D01*
X143710105Y-94202566D01*
X143567517Y-94129913D01*
X143346197Y-94058001D01*
X143116362Y-94021599D01*
X143116357Y-94021599D01*
X142883651Y-94021599D01*
X142883646Y-94021599D01*
X142653810Y-94058001D01*
X142432490Y-94129913D01*
X142225149Y-94235560D01*
X142036897Y-94372332D01*
X142036892Y-94372336D01*
X141872341Y-94536887D01*
X141872337Y-94536892D01*
X141735565Y-94725144D01*
X141629918Y-94932485D01*
X141558006Y-95153805D01*
X141521604Y-95383640D01*
X140278405Y-95383640D01*
X140242002Y-95153805D01*
X140204549Y-95038539D01*
X140170092Y-94932490D01*
X140170090Y-94932487D01*
X140170090Y-94932485D01*
X140104581Y-94803918D01*
X140064446Y-94725148D01*
X140007461Y-94646714D01*
X139927671Y-94536892D01*
X139927667Y-94536887D01*
X139763116Y-94372336D01*
X139763111Y-94372332D01*
X139574859Y-94235560D01*
X139574858Y-94235559D01*
X139574856Y-94235558D01*
X139510106Y-94202566D01*
X139367518Y-94129913D01*
X139146198Y-94058001D01*
X138916363Y-94021599D01*
X138916358Y-94021599D01*
X138683652Y-94021599D01*
X138683647Y-94021599D01*
X138453811Y-94058001D01*
X138232491Y-94129913D01*
X138025150Y-94235560D01*
X137836898Y-94372332D01*
X137836893Y-94372336D01*
X137672342Y-94536887D01*
X137672338Y-94536892D01*
X137535566Y-94725144D01*
X137429919Y-94932485D01*
X137358007Y-95153805D01*
X137321605Y-95383640D01*
X136078405Y-95383640D01*
X136042002Y-95153805D01*
X136004549Y-95038539D01*
X135970092Y-94932490D01*
X135970090Y-94932487D01*
X135970090Y-94932485D01*
X135904581Y-94803918D01*
X135864446Y-94725148D01*
X135807461Y-94646714D01*
X135727671Y-94536892D01*
X135727667Y-94536887D01*
X135563116Y-94372336D01*
X135563111Y-94372332D01*
X135374859Y-94235560D01*
X135374858Y-94235559D01*
X135374856Y-94235558D01*
X135310106Y-94202566D01*
X135167518Y-94129913D01*
X134946198Y-94058001D01*
X134716363Y-94021599D01*
X134716358Y-94021599D01*
X134483652Y-94021599D01*
X134483647Y-94021599D01*
X134253811Y-94058001D01*
X134032491Y-94129913D01*
X133825150Y-94235560D01*
X133636898Y-94372332D01*
X133636893Y-94372336D01*
X133472342Y-94536887D01*
X133472338Y-94536892D01*
X133335566Y-94725144D01*
X133229919Y-94932485D01*
X133158007Y-95153805D01*
X133121605Y-95383640D01*
X125728267Y-95383640D01*
X125746550Y-95347758D01*
X125809532Y-95153921D01*
X125817223Y-95130249D01*
X125817223Y-95130248D01*
X125817224Y-95130245D01*
X125853002Y-94904354D01*
X125853002Y-94675646D01*
X125817224Y-94449755D01*
X125817223Y-94449751D01*
X125817223Y-94449750D01*
X125746551Y-94232244D01*
X125657770Y-94058002D01*
X125642719Y-94028462D01*
X125508288Y-93843434D01*
X125346568Y-93681714D01*
X125161540Y-93547283D01*
X124957757Y-93443450D01*
X124740250Y-93372778D01*
X124570828Y-93345944D01*
X124514356Y-93337000D01*
X124285648Y-93337000D01*
X124210351Y-93348926D01*
X124059755Y-93372778D01*
X124059752Y-93372778D01*
X123842246Y-93443450D01*
X123638463Y-93547283D01*
X123610936Y-93567283D01*
X123453436Y-93681714D01*
X123453434Y-93681716D01*
X123453433Y-93681716D01*
X123291718Y-93843431D01*
X123291718Y-93843432D01*
X123291716Y-93843434D01*
X123233982Y-93922896D01*
X123157285Y-94028461D01*
X123053452Y-94232244D01*
X122982780Y-94449750D01*
X122982780Y-94449753D01*
X122947002Y-94675646D01*
X111849834Y-94675646D01*
X111817224Y-94469755D01*
X111817223Y-94469751D01*
X111817223Y-94469750D01*
X111746551Y-94252244D01*
X111738049Y-94235558D01*
X111642719Y-94048462D01*
X111508288Y-93863434D01*
X111346568Y-93701714D01*
X111161540Y-93567283D01*
X111122288Y-93547283D01*
X110957757Y-93463450D01*
X110740250Y-93392778D01*
X110570828Y-93365944D01*
X110514356Y-93357000D01*
X110285648Y-93357000D01*
X110210351Y-93368926D01*
X110059755Y-93392778D01*
X110059752Y-93392778D01*
X109842246Y-93463450D01*
X109638463Y-93567283D01*
X109532898Y-93643980D01*
X109453436Y-93701714D01*
X109453434Y-93701716D01*
X109453433Y-93701716D01*
X109291718Y-93863431D01*
X109291718Y-93863432D01*
X109291716Y-93863434D01*
X109233982Y-93942896D01*
X109157285Y-94048461D01*
X109053452Y-94252244D01*
X108982780Y-94469750D01*
X108982780Y-94469753D01*
X108982780Y-94469755D01*
X108947002Y-94695646D01*
X95900502Y-94695646D01*
X95900502Y-89615646D01*
X108947002Y-89615646D01*
X108947002Y-89844354D01*
X108953232Y-89883687D01*
X108982780Y-90070246D01*
X108982780Y-90070249D01*
X109053452Y-90287755D01*
X109157285Y-90491538D01*
X109291716Y-90676566D01*
X109453436Y-90838286D01*
X109638464Y-90972717D01*
X109802992Y-91056548D01*
X109842246Y-91076549D01*
X110059753Y-91147221D01*
X110059754Y-91147221D01*
X110059757Y-91147222D01*
X110285648Y-91183000D01*
X110285649Y-91183000D01*
X110514355Y-91183000D01*
X110514356Y-91183000D01*
X110740247Y-91147222D01*
X110740250Y-91147221D01*
X110740251Y-91147221D01*
X110957757Y-91076549D01*
X110957757Y-91076548D01*
X110957760Y-91076548D01*
X111161540Y-90972717D01*
X111346568Y-90838286D01*
X111508288Y-90676566D01*
X111642719Y-90491538D01*
X111746550Y-90287758D01*
X111817224Y-90070245D01*
X111853002Y-89844354D01*
X111853002Y-89615646D01*
X111849834Y-89595646D01*
X122947002Y-89595646D01*
X122947002Y-89824353D01*
X122982780Y-90050246D01*
X122982780Y-90050249D01*
X123053452Y-90267755D01*
X123097169Y-90353554D01*
X123157285Y-90471538D01*
X123291716Y-90656566D01*
X123453436Y-90818286D01*
X123638464Y-90952717D01*
X123842244Y-91056548D01*
X123842246Y-91056549D01*
X124059753Y-91127221D01*
X124059754Y-91127221D01*
X124059757Y-91127222D01*
X124285648Y-91163000D01*
X124285649Y-91163000D01*
X124514355Y-91163000D01*
X124514356Y-91163000D01*
X124740247Y-91127222D01*
X124740250Y-91127221D01*
X124740251Y-91127221D01*
X124957757Y-91056549D01*
X124957757Y-91056548D01*
X124957760Y-91056548D01*
X125161540Y-90952717D01*
X125346568Y-90818286D01*
X125508288Y-90656566D01*
X125642719Y-90471538D01*
X125746550Y-90267758D01*
X125795743Y-90116358D01*
X125817223Y-90050249D01*
X125817223Y-90050248D01*
X125817224Y-90050245D01*
X125842696Y-89889422D01*
X125843612Y-89883641D01*
X133121605Y-89883641D01*
X133121605Y-90116358D01*
X133158007Y-90346193D01*
X133229919Y-90567513D01*
X133335566Y-90774854D01*
X133472338Y-90963106D01*
X133472342Y-90963111D01*
X133636893Y-91127662D01*
X133636898Y-91127666D01*
X133745867Y-91206836D01*
X133825154Y-91264441D01*
X133957271Y-91331758D01*
X134032491Y-91370085D01*
X134032493Y-91370085D01*
X134032496Y-91370087D01*
X134151127Y-91408632D01*
X134253811Y-91441997D01*
X134483647Y-91478400D01*
X134483652Y-91478400D01*
X134716363Y-91478400D01*
X134946198Y-91441997D01*
X134947703Y-91441508D01*
X135167514Y-91370087D01*
X135374856Y-91264441D01*
X135563118Y-91127661D01*
X135727666Y-90963113D01*
X135864446Y-90774851D01*
X135970092Y-90567509D01*
X136042002Y-90346193D01*
X136054425Y-90267758D01*
X136078405Y-90116358D01*
X136078405Y-89883641D01*
X137321605Y-89883641D01*
X137321605Y-90116358D01*
X137358007Y-90346193D01*
X137429919Y-90567513D01*
X137535566Y-90774854D01*
X137672338Y-90963106D01*
X137672342Y-90963111D01*
X137836893Y-91127662D01*
X137836898Y-91127666D01*
X137945867Y-91206836D01*
X138025154Y-91264441D01*
X138157271Y-91331758D01*
X138232491Y-91370085D01*
X138232493Y-91370085D01*
X138232496Y-91370087D01*
X138351127Y-91408632D01*
X138453811Y-91441997D01*
X138683647Y-91478400D01*
X138683652Y-91478400D01*
X138916363Y-91478400D01*
X139146198Y-91441997D01*
X139147703Y-91441508D01*
X139367514Y-91370087D01*
X139574856Y-91264441D01*
X139763118Y-91127661D01*
X139927666Y-90963113D01*
X140064446Y-90774851D01*
X140170092Y-90567509D01*
X140242002Y-90346193D01*
X140254425Y-90267758D01*
X140278405Y-90116358D01*
X140278405Y-89883641D01*
X141521604Y-89883641D01*
X141521604Y-90116358D01*
X141558006Y-90346193D01*
X141629918Y-90567513D01*
X141735565Y-90774854D01*
X141872337Y-90963106D01*
X141872341Y-90963111D01*
X142036892Y-91127662D01*
X142036897Y-91127666D01*
X142145866Y-91206836D01*
X142225153Y-91264441D01*
X142357270Y-91331758D01*
X142432490Y-91370085D01*
X142432492Y-91370085D01*
X142432495Y-91370087D01*
X142551126Y-91408632D01*
X142653810Y-91441997D01*
X142883646Y-91478400D01*
X142883651Y-91478400D01*
X143116362Y-91478400D01*
X143346197Y-91441997D01*
X143347702Y-91441508D01*
X143567513Y-91370087D01*
X143774855Y-91264441D01*
X143963117Y-91127661D01*
X144127665Y-90963113D01*
X144264445Y-90774851D01*
X144370091Y-90567509D01*
X144442001Y-90346193D01*
X144454424Y-90267758D01*
X144478404Y-90116358D01*
X144478404Y-89883687D01*
X145722103Y-89883687D01*
X145722103Y-90116312D01*
X145758494Y-90346077D01*
X145830377Y-90567314D01*
X145935992Y-90774591D01*
X145993164Y-90853282D01*
X145993165Y-90853283D01*
X146542400Y-90304048D01*
X146558491Y-90342895D01*
X146637713Y-90461460D01*
X146738543Y-90562290D01*
X146857108Y-90641512D01*
X146895953Y-90657602D01*
X146346718Y-91206836D01*
X146425414Y-91264012D01*
X146632688Y-91369625D01*
X146853925Y-91441508D01*
X147083691Y-91477900D01*
X147316315Y-91477900D01*
X147546080Y-91441508D01*
X147767317Y-91369625D01*
X147974583Y-91264016D01*
X147974589Y-91264012D01*
X148053285Y-91206836D01*
X148053286Y-91206836D01*
X147504051Y-90657602D01*
X147542898Y-90641512D01*
X147661463Y-90562290D01*
X147762293Y-90461460D01*
X147841515Y-90342895D01*
X147857605Y-90304049D01*
X148406839Y-90853283D01*
X148406839Y-90853282D01*
X148464015Y-90774586D01*
X148464019Y-90774580D01*
X148569628Y-90567314D01*
X148641511Y-90346077D01*
X148677903Y-90116312D01*
X148677903Y-89883687D01*
X149922102Y-89883687D01*
X149922102Y-90116312D01*
X149958493Y-90346077D01*
X150030376Y-90567314D01*
X150135991Y-90774591D01*
X150193163Y-90853282D01*
X150193164Y-90853283D01*
X150742399Y-90304048D01*
X150758490Y-90342895D01*
X150837712Y-90461460D01*
X150938542Y-90562290D01*
X151057107Y-90641512D01*
X151095952Y-90657602D01*
X150546717Y-91206836D01*
X150625413Y-91264012D01*
X150832687Y-91369625D01*
X151053924Y-91441508D01*
X151283690Y-91477900D01*
X151516314Y-91477900D01*
X151746079Y-91441508D01*
X151967316Y-91369625D01*
X152174582Y-91264016D01*
X152174588Y-91264012D01*
X152253284Y-91206836D01*
X152253285Y-91206836D01*
X151704050Y-90657602D01*
X151742897Y-90641512D01*
X151861462Y-90562290D01*
X151962292Y-90461460D01*
X152041514Y-90342895D01*
X152057604Y-90304049D01*
X152606838Y-90853283D01*
X152606838Y-90853282D01*
X152664014Y-90774586D01*
X152664018Y-90774580D01*
X152769627Y-90567314D01*
X152841510Y-90346077D01*
X152877902Y-90116312D01*
X152877902Y-89883687D01*
X154122101Y-89883687D01*
X154122101Y-90116312D01*
X154158492Y-90346077D01*
X154230375Y-90567314D01*
X154335990Y-90774591D01*
X154393162Y-90853282D01*
X154393163Y-90853283D01*
X154942398Y-90304048D01*
X154958489Y-90342895D01*
X155037711Y-90461460D01*
X155138541Y-90562290D01*
X155257106Y-90641512D01*
X155295951Y-90657602D01*
X154746716Y-91206836D01*
X154825412Y-91264012D01*
X155032686Y-91369625D01*
X155253923Y-91441508D01*
X155483689Y-91477900D01*
X155716313Y-91477900D01*
X155946078Y-91441508D01*
X156167315Y-91369625D01*
X156374581Y-91264016D01*
X156374587Y-91264012D01*
X156453283Y-91206836D01*
X156453284Y-91206836D01*
X155904049Y-90657602D01*
X155942896Y-90641512D01*
X156061461Y-90562290D01*
X156162291Y-90461460D01*
X156241513Y-90342895D01*
X156257603Y-90304049D01*
X156806837Y-90853283D01*
X156806837Y-90853282D01*
X156864013Y-90774586D01*
X156864017Y-90774580D01*
X156969626Y-90567314D01*
X157041509Y-90346077D01*
X157077901Y-90116312D01*
X157077901Y-89883687D01*
X157077894Y-89883641D01*
X158321601Y-89883641D01*
X158321601Y-90116358D01*
X158358003Y-90346193D01*
X158429915Y-90567513D01*
X158535562Y-90774854D01*
X158672334Y-90963106D01*
X158672338Y-90963111D01*
X158836889Y-91127662D01*
X158836894Y-91127666D01*
X158945863Y-91206836D01*
X159025150Y-91264441D01*
X159157267Y-91331758D01*
X159232487Y-91370085D01*
X159232489Y-91370085D01*
X159232492Y-91370087D01*
X159351123Y-91408632D01*
X159453807Y-91441997D01*
X159683643Y-91478400D01*
X159683648Y-91478400D01*
X159916359Y-91478400D01*
X160146194Y-91441997D01*
X160147699Y-91441508D01*
X160367510Y-91370087D01*
X160574852Y-91264441D01*
X160763114Y-91127661D01*
X160927662Y-90963113D01*
X161064442Y-90774851D01*
X161170088Y-90567509D01*
X161241998Y-90346193D01*
X161254421Y-90267758D01*
X161278401Y-90116358D01*
X161278401Y-89883641D01*
X162521600Y-89883641D01*
X162521600Y-90116358D01*
X162558002Y-90346193D01*
X162629914Y-90567513D01*
X162735561Y-90774854D01*
X162872333Y-90963106D01*
X162872337Y-90963111D01*
X163036888Y-91127662D01*
X163036893Y-91127666D01*
X163145862Y-91206836D01*
X163225149Y-91264441D01*
X163357266Y-91331758D01*
X163432486Y-91370085D01*
X163432488Y-91370085D01*
X163432491Y-91370087D01*
X163551122Y-91408632D01*
X163653806Y-91441997D01*
X163883642Y-91478400D01*
X163883647Y-91478400D01*
X164116358Y-91478400D01*
X164346193Y-91441997D01*
X164347698Y-91441508D01*
X164567509Y-91370087D01*
X164774851Y-91264441D01*
X164963113Y-91127661D01*
X165127661Y-90963113D01*
X165264441Y-90774851D01*
X165370087Y-90567509D01*
X165441997Y-90346193D01*
X165454420Y-90267758D01*
X165478400Y-90116358D01*
X165478400Y-89883641D01*
X165442015Y-89653922D01*
X165441997Y-89653807D01*
X165441994Y-89653797D01*
X165440469Y-89649102D01*
X165440466Y-89649093D01*
X165429598Y-89615646D01*
X172947002Y-89615646D01*
X172947002Y-89844354D01*
X172953232Y-89883687D01*
X172982780Y-90070246D01*
X172982780Y-90070249D01*
X173053452Y-90287755D01*
X173157285Y-90491538D01*
X173291716Y-90676566D01*
X173453436Y-90838286D01*
X173638464Y-90972717D01*
X173802992Y-91056548D01*
X173842246Y-91076549D01*
X174059753Y-91147221D01*
X174059754Y-91147221D01*
X174059757Y-91147222D01*
X174285648Y-91183000D01*
X174285649Y-91183000D01*
X174514355Y-91183000D01*
X174514356Y-91183000D01*
X174740247Y-91147222D01*
X174740250Y-91147221D01*
X174740251Y-91147221D01*
X174957757Y-91076549D01*
X174957757Y-91076548D01*
X174957760Y-91076548D01*
X175161540Y-90972717D01*
X175346568Y-90838286D01*
X175508288Y-90676566D01*
X175642719Y-90491538D01*
X175746550Y-90287758D01*
X175817224Y-90070245D01*
X175853002Y-89844354D01*
X175853002Y-89615646D01*
X175849834Y-89595646D01*
X186947002Y-89595646D01*
X186947002Y-89824353D01*
X186982780Y-90050246D01*
X186982780Y-90050249D01*
X187053452Y-90267755D01*
X187097169Y-90353554D01*
X187157285Y-90471538D01*
X187291716Y-90656566D01*
X187453436Y-90818286D01*
X187638464Y-90952717D01*
X187842244Y-91056548D01*
X187842246Y-91056549D01*
X188059753Y-91127221D01*
X188059754Y-91127221D01*
X188059757Y-91127222D01*
X188285648Y-91163000D01*
X188285649Y-91163000D01*
X188514355Y-91163000D01*
X188514356Y-91163000D01*
X188740247Y-91127222D01*
X188740250Y-91127221D01*
X188740251Y-91127221D01*
X188957757Y-91056549D01*
X188957757Y-91056548D01*
X188957760Y-91056548D01*
X189161540Y-90952717D01*
X189346568Y-90818286D01*
X189508288Y-90656566D01*
X189642719Y-90471538D01*
X189746550Y-90267758D01*
X189795743Y-90116358D01*
X189817223Y-90050249D01*
X189817223Y-90050248D01*
X189817224Y-90050245D01*
X189853002Y-89824354D01*
X189853002Y-89595646D01*
X189817224Y-89369755D01*
X189817223Y-89369751D01*
X189817223Y-89369750D01*
X189746551Y-89152244D01*
X189687774Y-89036888D01*
X189642719Y-88948462D01*
X189508288Y-88763434D01*
X189346568Y-88601714D01*
X189161540Y-88467283D01*
X188957757Y-88363450D01*
X188740250Y-88292778D01*
X188570828Y-88265944D01*
X188514356Y-88257000D01*
X188285648Y-88257000D01*
X188210351Y-88268926D01*
X188059755Y-88292778D01*
X188059752Y-88292778D01*
X187842246Y-88363450D01*
X187638463Y-88467283D01*
X187610936Y-88487283D01*
X187453436Y-88601714D01*
X187453434Y-88601716D01*
X187453433Y-88601716D01*
X187291718Y-88763431D01*
X187291718Y-88763432D01*
X187291716Y-88763434D01*
X187233982Y-88842896D01*
X187157285Y-88948461D01*
X187053452Y-89152244D01*
X186982780Y-89369750D01*
X186982780Y-89369753D01*
X186947002Y-89595646D01*
X175849834Y-89595646D01*
X175817224Y-89389755D01*
X175817223Y-89389751D01*
X175817223Y-89389750D01*
X175746551Y-89172244D01*
X175746550Y-89172242D01*
X175642719Y-88968462D01*
X175508288Y-88783434D01*
X175346568Y-88621714D01*
X175161540Y-88487283D01*
X175122288Y-88467283D01*
X174957757Y-88383450D01*
X174740250Y-88312778D01*
X174570828Y-88285944D01*
X174514356Y-88277000D01*
X174285648Y-88277000D01*
X174210351Y-88288926D01*
X174059755Y-88312778D01*
X174059752Y-88312778D01*
X173842246Y-88383450D01*
X173638463Y-88487283D01*
X173541128Y-88558002D01*
X173453436Y-88621714D01*
X173453434Y-88621716D01*
X173453433Y-88621716D01*
X173291718Y-88783431D01*
X173291718Y-88783432D01*
X173291716Y-88783434D01*
X173233982Y-88862896D01*
X173157285Y-88968461D01*
X173053452Y-89172244D01*
X172982780Y-89389750D01*
X172982780Y-89389753D01*
X172950170Y-89595646D01*
X172947002Y-89615646D01*
X165429598Y-89615646D01*
X165395286Y-89510046D01*
X165370087Y-89432491D01*
X165370085Y-89432488D01*
X165370085Y-89432486D01*
X165304576Y-89303919D01*
X165264441Y-89225149D01*
X165207456Y-89146715D01*
X165127666Y-89036893D01*
X165127662Y-89036888D01*
X164963111Y-88872337D01*
X164963106Y-88872333D01*
X164774854Y-88735561D01*
X164774853Y-88735560D01*
X164774851Y-88735559D01*
X164710101Y-88702567D01*
X164567513Y-88629914D01*
X164346193Y-88558002D01*
X164116358Y-88521600D01*
X164116353Y-88521600D01*
X163883647Y-88521600D01*
X163883642Y-88521600D01*
X163653806Y-88558002D01*
X163432486Y-88629914D01*
X163225145Y-88735561D01*
X163036893Y-88872333D01*
X163036888Y-88872337D01*
X162872337Y-89036888D01*
X162872333Y-89036893D01*
X162735561Y-89225145D01*
X162629914Y-89432486D01*
X162558002Y-89653806D01*
X162521600Y-89883641D01*
X161278401Y-89883641D01*
X161241998Y-89653806D01*
X161204545Y-89538540D01*
X161170088Y-89432491D01*
X161170086Y-89432488D01*
X161170086Y-89432486D01*
X161104577Y-89303919D01*
X161064442Y-89225149D01*
X161007457Y-89146715D01*
X160927667Y-89036893D01*
X160927663Y-89036888D01*
X160763112Y-88872337D01*
X160763107Y-88872333D01*
X160574855Y-88735561D01*
X160574854Y-88735560D01*
X160574852Y-88735559D01*
X160510102Y-88702567D01*
X160367514Y-88629914D01*
X160146194Y-88558002D01*
X159916359Y-88521600D01*
X159916354Y-88521600D01*
X159683648Y-88521600D01*
X159683643Y-88521600D01*
X159453807Y-88558002D01*
X159232487Y-88629914D01*
X159025146Y-88735561D01*
X158836894Y-88872333D01*
X158836889Y-88872337D01*
X158672338Y-89036888D01*
X158672334Y-89036893D01*
X158535562Y-89225145D01*
X158429915Y-89432486D01*
X158358003Y-89653806D01*
X158321601Y-89883641D01*
X157077894Y-89883641D01*
X157041509Y-89653922D01*
X156969626Y-89432685D01*
X156864013Y-89225411D01*
X156806837Y-89146716D01*
X156806837Y-89146715D01*
X156257603Y-89695950D01*
X156241513Y-89657105D01*
X156162291Y-89538540D01*
X156061461Y-89437710D01*
X155942896Y-89358488D01*
X155904049Y-89342397D01*
X156453284Y-88793162D01*
X156453283Y-88793161D01*
X156374592Y-88735989D01*
X156167315Y-88630374D01*
X155946078Y-88558491D01*
X155716313Y-88522100D01*
X155483689Y-88522100D01*
X155253923Y-88558491D01*
X155032686Y-88630374D01*
X154825416Y-88735985D01*
X154746717Y-88793162D01*
X155295952Y-89342397D01*
X155257106Y-89358488D01*
X155138541Y-89437710D01*
X155037711Y-89538540D01*
X154958489Y-89657105D01*
X154942398Y-89695950D01*
X154393163Y-89146716D01*
X154335986Y-89225415D01*
X154230375Y-89432685D01*
X154158492Y-89653922D01*
X154122101Y-89883687D01*
X152877902Y-89883687D01*
X152841510Y-89653922D01*
X152769627Y-89432685D01*
X152664014Y-89225411D01*
X152606838Y-89146716D01*
X152606838Y-89146715D01*
X152057604Y-89695950D01*
X152041514Y-89657105D01*
X151962292Y-89538540D01*
X151861462Y-89437710D01*
X151742897Y-89358488D01*
X151704050Y-89342397D01*
X152253285Y-88793162D01*
X152253284Y-88793161D01*
X152174593Y-88735989D01*
X151967316Y-88630374D01*
X151746079Y-88558491D01*
X151516314Y-88522100D01*
X151283690Y-88522100D01*
X151053924Y-88558491D01*
X150832687Y-88630374D01*
X150625417Y-88735985D01*
X150546718Y-88793162D01*
X151095953Y-89342397D01*
X151057107Y-89358488D01*
X150938542Y-89437710D01*
X150837712Y-89538540D01*
X150758490Y-89657105D01*
X150742399Y-89695950D01*
X150193164Y-89146716D01*
X150135987Y-89225415D01*
X150030376Y-89432685D01*
X149958493Y-89653922D01*
X149922102Y-89883687D01*
X148677903Y-89883687D01*
X148641511Y-89653922D01*
X148569628Y-89432685D01*
X148464015Y-89225411D01*
X148406839Y-89146716D01*
X148406839Y-89146715D01*
X147857605Y-89695950D01*
X147841515Y-89657105D01*
X147762293Y-89538540D01*
X147661463Y-89437710D01*
X147542898Y-89358488D01*
X147504051Y-89342397D01*
X148053286Y-88793162D01*
X148053285Y-88793161D01*
X147974594Y-88735989D01*
X147767317Y-88630374D01*
X147546080Y-88558491D01*
X147316315Y-88522100D01*
X147083691Y-88522100D01*
X146853925Y-88558491D01*
X146632688Y-88630374D01*
X146425418Y-88735985D01*
X146346719Y-88793162D01*
X146895954Y-89342397D01*
X146857108Y-89358488D01*
X146738543Y-89437710D01*
X146637713Y-89538540D01*
X146558491Y-89657105D01*
X146542400Y-89695950D01*
X145993165Y-89146716D01*
X145935988Y-89225415D01*
X145830377Y-89432685D01*
X145758494Y-89653922D01*
X145722103Y-89883687D01*
X144478404Y-89883687D01*
X144478404Y-89883641D01*
X144442001Y-89653806D01*
X144404548Y-89538540D01*
X144370091Y-89432491D01*
X144370089Y-89432488D01*
X144370089Y-89432486D01*
X144304580Y-89303919D01*
X144264445Y-89225149D01*
X144207460Y-89146715D01*
X144127670Y-89036893D01*
X144127666Y-89036888D01*
X143963115Y-88872337D01*
X143963110Y-88872333D01*
X143774858Y-88735561D01*
X143774857Y-88735560D01*
X143774855Y-88735559D01*
X143710105Y-88702567D01*
X143567517Y-88629914D01*
X143346197Y-88558002D01*
X143116362Y-88521600D01*
X143116357Y-88521600D01*
X142883651Y-88521600D01*
X142883646Y-88521600D01*
X142653810Y-88558002D01*
X142432490Y-88629914D01*
X142225149Y-88735561D01*
X142036897Y-88872333D01*
X142036892Y-88872337D01*
X141872341Y-89036888D01*
X141872337Y-89036893D01*
X141735565Y-89225145D01*
X141629918Y-89432486D01*
X141558006Y-89653806D01*
X141521604Y-89883641D01*
X140278405Y-89883641D01*
X140242002Y-89653806D01*
X140204549Y-89538540D01*
X140170092Y-89432491D01*
X140170090Y-89432488D01*
X140170090Y-89432486D01*
X140104581Y-89303919D01*
X140064446Y-89225149D01*
X140007461Y-89146715D01*
X139927671Y-89036893D01*
X139927667Y-89036888D01*
X139763116Y-88872337D01*
X139763111Y-88872333D01*
X139574859Y-88735561D01*
X139574858Y-88735560D01*
X139574856Y-88735559D01*
X139510106Y-88702567D01*
X139367518Y-88629914D01*
X139146198Y-88558002D01*
X138916363Y-88521600D01*
X138916358Y-88521600D01*
X138683652Y-88521600D01*
X138683647Y-88521600D01*
X138453811Y-88558002D01*
X138232491Y-88629914D01*
X138025150Y-88735561D01*
X137836898Y-88872333D01*
X137836893Y-88872337D01*
X137672342Y-89036888D01*
X137672338Y-89036893D01*
X137535566Y-89225145D01*
X137429919Y-89432486D01*
X137358007Y-89653806D01*
X137321605Y-89883641D01*
X136078405Y-89883641D01*
X136042002Y-89653806D01*
X136004549Y-89538540D01*
X135970092Y-89432491D01*
X135970090Y-89432488D01*
X135970090Y-89432486D01*
X135904581Y-89303919D01*
X135864446Y-89225149D01*
X135807461Y-89146715D01*
X135727671Y-89036893D01*
X135727667Y-89036888D01*
X135563116Y-88872337D01*
X135563111Y-88872333D01*
X135374859Y-88735561D01*
X135374858Y-88735560D01*
X135374856Y-88735559D01*
X135310106Y-88702567D01*
X135167518Y-88629914D01*
X134946198Y-88558002D01*
X134716363Y-88521600D01*
X134716358Y-88521600D01*
X134483652Y-88521600D01*
X134483647Y-88521600D01*
X134253811Y-88558002D01*
X134032491Y-88629914D01*
X133825150Y-88735561D01*
X133636898Y-88872333D01*
X133636893Y-88872337D01*
X133472342Y-89036888D01*
X133472338Y-89036893D01*
X133335566Y-89225145D01*
X133229919Y-89432486D01*
X133158007Y-89653806D01*
X133121605Y-89883641D01*
X125843612Y-89883641D01*
X125847455Y-89859377D01*
X125847455Y-89859376D01*
X125853002Y-89824354D01*
X125853002Y-89595646D01*
X125827191Y-89432685D01*
X125817224Y-89369755D01*
X125817223Y-89369751D01*
X125817223Y-89369750D01*
X125746551Y-89152244D01*
X125687774Y-89036888D01*
X125642719Y-88948462D01*
X125508288Y-88763434D01*
X125346568Y-88601714D01*
X125161540Y-88467283D01*
X124957757Y-88363450D01*
X124740250Y-88292778D01*
X124570828Y-88265944D01*
X124514356Y-88257000D01*
X124285648Y-88257000D01*
X124210351Y-88268926D01*
X124059755Y-88292778D01*
X124059752Y-88292778D01*
X123842246Y-88363450D01*
X123638463Y-88467283D01*
X123610936Y-88487283D01*
X123453436Y-88601714D01*
X123453434Y-88601716D01*
X123453433Y-88601716D01*
X123291718Y-88763431D01*
X123291718Y-88763432D01*
X123291716Y-88763434D01*
X123233982Y-88842896D01*
X123157285Y-88948461D01*
X123053452Y-89152244D01*
X122982780Y-89369750D01*
X122982780Y-89369753D01*
X122947002Y-89595646D01*
X111849834Y-89595646D01*
X111817224Y-89389755D01*
X111817223Y-89389751D01*
X111817223Y-89389750D01*
X111746551Y-89172244D01*
X111746550Y-89172242D01*
X111642719Y-88968462D01*
X111508288Y-88783434D01*
X111346568Y-88621714D01*
X111161540Y-88487283D01*
X111122288Y-88467283D01*
X110957757Y-88383450D01*
X110740250Y-88312778D01*
X110570828Y-88285944D01*
X110514356Y-88277000D01*
X110285648Y-88277000D01*
X110210351Y-88288926D01*
X110059755Y-88312778D01*
X110059752Y-88312778D01*
X109842246Y-88383450D01*
X109638463Y-88487283D01*
X109541128Y-88558002D01*
X109453436Y-88621714D01*
X109453434Y-88621716D01*
X109453433Y-88621716D01*
X109291718Y-88783431D01*
X109291718Y-88783432D01*
X109291716Y-88783434D01*
X109233982Y-88862896D01*
X109157285Y-88968461D01*
X109053452Y-89172244D01*
X108982780Y-89389750D01*
X108982780Y-89389753D01*
X108950170Y-89595646D01*
X108947002Y-89615646D01*
X95900502Y-89615646D01*
X95900502Y-84535686D01*
X108947502Y-84535686D01*
X108947502Y-84764313D01*
X108983267Y-84990124D01*
X108983267Y-84990125D01*
X109053919Y-85207568D01*
X109157713Y-85411276D01*
X109211349Y-85485098D01*
X109211349Y-85485099D01*
X109761839Y-84934608D01*
X109780999Y-84980864D01*
X109857441Y-85095268D01*
X109954734Y-85192561D01*
X110069138Y-85269003D01*
X110115392Y-85288161D01*
X109564901Y-85838651D01*
X109638727Y-85892288D01*
X109638733Y-85892292D01*
X109842433Y-85996082D01*
X110059877Y-86066734D01*
X110285689Y-86102500D01*
X110514315Y-86102500D01*
X110740126Y-86066734D01*
X110740127Y-86066734D01*
X110957570Y-85996082D01*
X111161278Y-85892288D01*
X111235100Y-85838651D01*
X110684611Y-85288162D01*
X110730866Y-85269003D01*
X110845270Y-85192561D01*
X110942563Y-85095268D01*
X111019005Y-84980864D01*
X111038163Y-84934609D01*
X111588653Y-85485099D01*
X111588653Y-85485098D01*
X111642290Y-85411276D01*
X111746084Y-85207568D01*
X111816736Y-84990125D01*
X111816736Y-84990124D01*
X111852502Y-84764313D01*
X111852502Y-84535690D01*
X111851634Y-84530210D01*
X111851634Y-84530207D01*
X111849334Y-84515686D01*
X122947502Y-84515686D01*
X122947502Y-84744313D01*
X122983267Y-84970124D01*
X122983267Y-84970125D01*
X123053919Y-85187568D01*
X123157713Y-85391276D01*
X123211349Y-85465098D01*
X123211349Y-85465099D01*
X123761839Y-84914608D01*
X123780999Y-84960864D01*
X123857441Y-85075268D01*
X123954734Y-85172561D01*
X124069138Y-85249003D01*
X124115392Y-85268161D01*
X123564901Y-85818651D01*
X123638727Y-85872288D01*
X123638733Y-85872292D01*
X123842433Y-85976082D01*
X124059877Y-86046734D01*
X124285689Y-86082500D01*
X124514315Y-86082500D01*
X124740126Y-86046734D01*
X124740127Y-86046734D01*
X124957570Y-85976082D01*
X125161278Y-85872288D01*
X125235100Y-85818651D01*
X125235101Y-85818651D01*
X124684611Y-85268162D01*
X124730866Y-85249003D01*
X124845270Y-85172561D01*
X124942563Y-85075268D01*
X125019005Y-84960864D01*
X125038163Y-84914609D01*
X125588653Y-85465099D01*
X125588653Y-85465098D01*
X125642290Y-85391276D01*
X125746084Y-85187568D01*
X125816736Y-84970125D01*
X125816736Y-84970124D01*
X125852502Y-84744313D01*
X125852502Y-84535686D01*
X172947502Y-84535686D01*
X172947502Y-84764313D01*
X172983267Y-84990124D01*
X172983267Y-84990125D01*
X173053919Y-85207568D01*
X173157713Y-85411276D01*
X173211349Y-85485098D01*
X173211349Y-85485099D01*
X173761839Y-84934608D01*
X173780999Y-84980864D01*
X173857441Y-85095268D01*
X173954734Y-85192561D01*
X174069138Y-85269003D01*
X174115392Y-85288161D01*
X173564901Y-85838651D01*
X173638727Y-85892288D01*
X173638733Y-85892292D01*
X173842433Y-85996082D01*
X174059877Y-86066734D01*
X174285689Y-86102500D01*
X174514315Y-86102500D01*
X174740126Y-86066734D01*
X174740127Y-86066734D01*
X174957570Y-85996082D01*
X175161278Y-85892288D01*
X175235100Y-85838651D01*
X174684611Y-85288162D01*
X174730866Y-85269003D01*
X174845270Y-85192561D01*
X174942563Y-85095268D01*
X175019005Y-84980864D01*
X175038163Y-84934609D01*
X175588653Y-85485099D01*
X175588653Y-85485098D01*
X175642290Y-85411276D01*
X175746084Y-85207568D01*
X175816736Y-84990125D01*
X175816736Y-84990124D01*
X175852502Y-84764313D01*
X175852502Y-84535690D01*
X175851634Y-84530210D01*
X175851634Y-84530207D01*
X175849334Y-84515686D01*
X186947502Y-84515686D01*
X186947502Y-84744313D01*
X186983267Y-84970124D01*
X186983267Y-84970125D01*
X187053919Y-85187568D01*
X187157713Y-85391276D01*
X187211349Y-85465098D01*
X187211349Y-85465099D01*
X187761839Y-84914608D01*
X187780999Y-84960864D01*
X187857441Y-85075268D01*
X187954734Y-85172561D01*
X188069138Y-85249003D01*
X188115392Y-85268161D01*
X187564901Y-85818651D01*
X187638727Y-85872288D01*
X187638733Y-85872292D01*
X187842433Y-85976082D01*
X188059877Y-86046734D01*
X188285689Y-86082500D01*
X188514315Y-86082500D01*
X188740126Y-86046734D01*
X188740127Y-86046734D01*
X188957570Y-85976082D01*
X189161278Y-85872288D01*
X189235101Y-85818651D01*
X188684611Y-85268162D01*
X188730866Y-85249003D01*
X188845270Y-85172561D01*
X188942563Y-85075268D01*
X189019005Y-84960864D01*
X189038164Y-84914609D01*
X189588653Y-85465098D01*
X189642290Y-85391276D01*
X189746084Y-85187568D01*
X189816736Y-84970125D01*
X189816736Y-84970124D01*
X189852502Y-84744313D01*
X189852502Y-84515686D01*
X189816736Y-84289875D01*
X189816736Y-84289874D01*
X189746084Y-84072431D01*
X189642294Y-83868731D01*
X189642290Y-83868725D01*
X189588653Y-83794900D01*
X189588653Y-83794899D01*
X189038163Y-84345389D01*
X189019005Y-84299136D01*
X188942563Y-84184732D01*
X188845270Y-84087439D01*
X188730866Y-84010997D01*
X188684610Y-83991837D01*
X189235101Y-83441347D01*
X189161278Y-83387711D01*
X188957570Y-83283917D01*
X188740126Y-83213265D01*
X188514315Y-83177500D01*
X188285689Y-83177500D01*
X188059877Y-83213265D01*
X188059876Y-83213265D01*
X187842433Y-83283917D01*
X187638721Y-83387713D01*
X187564902Y-83441346D01*
X187564901Y-83441347D01*
X188115392Y-83991837D01*
X188069138Y-84010997D01*
X187954734Y-84087439D01*
X187857441Y-84184732D01*
X187780999Y-84299136D01*
X187761839Y-84345390D01*
X187211349Y-83794899D01*
X187211348Y-83794900D01*
X187157715Y-83868719D01*
X187053919Y-84072431D01*
X186983267Y-84289874D01*
X186983267Y-84289875D01*
X186947502Y-84515686D01*
X175849334Y-84515686D01*
X175816736Y-84309875D01*
X175816736Y-84309874D01*
X175746084Y-84092431D01*
X175642294Y-83888731D01*
X175642290Y-83888725D01*
X175588653Y-83814900D01*
X175588653Y-83814899D01*
X175038163Y-84365389D01*
X175019005Y-84319136D01*
X174942563Y-84204732D01*
X174845270Y-84107439D01*
X174730866Y-84030997D01*
X174684610Y-84011837D01*
X175235101Y-83461347D01*
X175161278Y-83407711D01*
X174957570Y-83303917D01*
X174740126Y-83233265D01*
X174514315Y-83197500D01*
X174285689Y-83197500D01*
X174059877Y-83233265D01*
X174059876Y-83233265D01*
X173842433Y-83303917D01*
X173638721Y-83407713D01*
X173564902Y-83461346D01*
X173564901Y-83461347D01*
X174115392Y-84011837D01*
X174069138Y-84030997D01*
X173954734Y-84107439D01*
X173857441Y-84204732D01*
X173780999Y-84319136D01*
X173761839Y-84365390D01*
X173211349Y-83814899D01*
X173211348Y-83814900D01*
X173157715Y-83888719D01*
X173053919Y-84092431D01*
X172983267Y-84309874D01*
X172983267Y-84309875D01*
X172947502Y-84535686D01*
X125852502Y-84535686D01*
X125852502Y-84515686D01*
X125816736Y-84289875D01*
X125816736Y-84289874D01*
X125746084Y-84072431D01*
X125642294Y-83868731D01*
X125642290Y-83868725D01*
X125588653Y-83794900D01*
X125588653Y-83794899D01*
X125038163Y-84345389D01*
X125019005Y-84299136D01*
X124942563Y-84184732D01*
X124845270Y-84087439D01*
X124730866Y-84010997D01*
X124684610Y-83991837D01*
X125235101Y-83441347D01*
X125161278Y-83387711D01*
X124957570Y-83283917D01*
X124740126Y-83213265D01*
X124514315Y-83177500D01*
X124285689Y-83177500D01*
X124059877Y-83213265D01*
X124059876Y-83213265D01*
X123842433Y-83283917D01*
X123638721Y-83387713D01*
X123564902Y-83441346D01*
X123564901Y-83441347D01*
X124115392Y-83991837D01*
X124069138Y-84010997D01*
X123954734Y-84087439D01*
X123857441Y-84184732D01*
X123780999Y-84299136D01*
X123761839Y-84345390D01*
X123211349Y-83794899D01*
X123211348Y-83794900D01*
X123157715Y-83868719D01*
X123053919Y-84072431D01*
X122983267Y-84289874D01*
X122983267Y-84289875D01*
X122947502Y-84515686D01*
X111849334Y-84515686D01*
X111816736Y-84309875D01*
X111816736Y-84309874D01*
X111746084Y-84092431D01*
X111642294Y-83888731D01*
X111642290Y-83888725D01*
X111588653Y-83814900D01*
X111588653Y-83814899D01*
X111038163Y-84365389D01*
X111019005Y-84319136D01*
X110942563Y-84204732D01*
X110845270Y-84107439D01*
X110730866Y-84030997D01*
X110684610Y-84011837D01*
X111235101Y-83461347D01*
X111161278Y-83407711D01*
X110957570Y-83303917D01*
X110740126Y-83233265D01*
X110514315Y-83197500D01*
X110285689Y-83197500D01*
X110059877Y-83233265D01*
X110059876Y-83233265D01*
X109842433Y-83303917D01*
X109638721Y-83407713D01*
X109564902Y-83461346D01*
X109564901Y-83461347D01*
X110115392Y-84011837D01*
X110069138Y-84030997D01*
X109954734Y-84107439D01*
X109857441Y-84204732D01*
X109780999Y-84319136D01*
X109761839Y-84365390D01*
X109211349Y-83814899D01*
X109211348Y-83814900D01*
X109157715Y-83888719D01*
X109053919Y-84092431D01*
X108983267Y-84309874D01*
X108983267Y-84309875D01*
X108947502Y-84535686D01*
X95900502Y-84535686D01*
X95900502Y-80753051D01*
X95900651Y-80746967D01*
X95906690Y-80624038D01*
X97799502Y-80624038D01*
X97799502Y-80875961D01*
X97838912Y-81124785D01*
X97916762Y-81364383D01*
X98031134Y-81588848D01*
X98179203Y-81792649D01*
X98179207Y-81792654D01*
X98357347Y-81970794D01*
X98357352Y-81970798D01*
X98535119Y-82099952D01*
X98561157Y-82118870D01*
X98704186Y-82191747D01*
X98785618Y-82233239D01*
X98785620Y-82233239D01*
X98785623Y-82233241D01*
X99025217Y-82311090D01*
X99274040Y-82350500D01*
X99274041Y-82350500D01*
X99525963Y-82350500D01*
X99525964Y-82350500D01*
X99774787Y-82311090D01*
X100014381Y-82233241D01*
X100238847Y-82118870D01*
X100442658Y-81970793D01*
X100620795Y-81792656D01*
X100768872Y-81588845D01*
X100883243Y-81364379D01*
X100961092Y-81124785D01*
X101000502Y-80875962D01*
X101000502Y-80624038D01*
X147799502Y-80624038D01*
X147799502Y-80875961D01*
X147838912Y-81124785D01*
X147916762Y-81364383D01*
X148031134Y-81588848D01*
X148179203Y-81792649D01*
X148179207Y-81792654D01*
X148357347Y-81970794D01*
X148357352Y-81970798D01*
X148535119Y-82099952D01*
X148561157Y-82118870D01*
X148704186Y-82191747D01*
X148785618Y-82233239D01*
X148785620Y-82233239D01*
X148785623Y-82233241D01*
X149025217Y-82311090D01*
X149274040Y-82350500D01*
X149274041Y-82350500D01*
X149525963Y-82350500D01*
X149525964Y-82350500D01*
X149774787Y-82311090D01*
X150014381Y-82233241D01*
X150238847Y-82118870D01*
X150442658Y-81970793D01*
X150620795Y-81792656D01*
X150768872Y-81588845D01*
X150883243Y-81364379D01*
X150961092Y-81124785D01*
X151000502Y-80875962D01*
X151000502Y-80624038D01*
X197799502Y-80624038D01*
X197799502Y-80875961D01*
X197838912Y-81124785D01*
X197916762Y-81364383D01*
X198031134Y-81588848D01*
X198179203Y-81792649D01*
X198179207Y-81792654D01*
X198357347Y-81970794D01*
X198357352Y-81970798D01*
X198535119Y-82099952D01*
X198561157Y-82118870D01*
X198704186Y-82191747D01*
X198785618Y-82233239D01*
X198785620Y-82233239D01*
X198785623Y-82233241D01*
X199025217Y-82311090D01*
X199274040Y-82350500D01*
X199274041Y-82350500D01*
X199525963Y-82350500D01*
X199525964Y-82350500D01*
X199774787Y-82311090D01*
X200014381Y-82233241D01*
X200238847Y-82118870D01*
X200442658Y-81970793D01*
X200620795Y-81792656D01*
X200768872Y-81588845D01*
X200883243Y-81364379D01*
X200961092Y-81124785D01*
X201000502Y-80875962D01*
X201000502Y-80624038D01*
X200961092Y-80375215D01*
X200883243Y-80135621D01*
X200883241Y-80135618D01*
X200883241Y-80135616D01*
X200841749Y-80054184D01*
X200768872Y-79911155D01*
X200640270Y-79734149D01*
X200620800Y-79707350D01*
X200620796Y-79707345D01*
X200442656Y-79529205D01*
X200442651Y-79529201D01*
X200238850Y-79381132D01*
X200238849Y-79381131D01*
X200238847Y-79381130D01*
X200168749Y-79345413D01*
X200014385Y-79266760D01*
X199774787Y-79188910D01*
X199525964Y-79149500D01*
X199274040Y-79149500D01*
X199149628Y-79169205D01*
X199025216Y-79188910D01*
X198785618Y-79266760D01*
X198561153Y-79381132D01*
X198357352Y-79529201D01*
X198357347Y-79529205D01*
X198179207Y-79707345D01*
X198179203Y-79707350D01*
X198031134Y-79911151D01*
X197916762Y-80135616D01*
X197838912Y-80375214D01*
X197799502Y-80624038D01*
X151000502Y-80624038D01*
X150961092Y-80375215D01*
X150883243Y-80135621D01*
X150883241Y-80135618D01*
X150883241Y-80135616D01*
X150841749Y-80054184D01*
X150768872Y-79911155D01*
X150640270Y-79734149D01*
X150620800Y-79707350D01*
X150620796Y-79707345D01*
X150442656Y-79529205D01*
X150442651Y-79529201D01*
X150238850Y-79381132D01*
X150238849Y-79381131D01*
X150238847Y-79381130D01*
X150168749Y-79345413D01*
X150014385Y-79266760D01*
X149774787Y-79188910D01*
X149525964Y-79149500D01*
X149274040Y-79149500D01*
X149149628Y-79169205D01*
X149025216Y-79188910D01*
X148785618Y-79266760D01*
X148561153Y-79381132D01*
X148357352Y-79529201D01*
X148357347Y-79529205D01*
X148179207Y-79707345D01*
X148179203Y-79707350D01*
X148031134Y-79911151D01*
X147916762Y-80135616D01*
X147838912Y-80375214D01*
X147799502Y-80624038D01*
X101000502Y-80624038D01*
X100961092Y-80375215D01*
X100883243Y-80135621D01*
X100883241Y-80135618D01*
X100883241Y-80135616D01*
X100841749Y-80054184D01*
X100768872Y-79911155D01*
X100640270Y-79734149D01*
X100620800Y-79707350D01*
X100620796Y-79707345D01*
X100442656Y-79529205D01*
X100442651Y-79529201D01*
X100238850Y-79381132D01*
X100238849Y-79381131D01*
X100238847Y-79381130D01*
X100168749Y-79345413D01*
X100014385Y-79266760D01*
X99774787Y-79188910D01*
X99525964Y-79149500D01*
X99274040Y-79149500D01*
X99149628Y-79169205D01*
X99025216Y-79188910D01*
X98785618Y-79266760D01*
X98561153Y-79381132D01*
X98357352Y-79529201D01*
X98357347Y-79529205D01*
X98179207Y-79707345D01*
X98179203Y-79707350D01*
X98031134Y-79911151D01*
X97916762Y-80135616D01*
X97838912Y-80375214D01*
X97799502Y-80624038D01*
X95906690Y-80624038D01*
X95907228Y-80613082D01*
X95917054Y-80413072D01*
X95918247Y-80400962D01*
X95922066Y-80375214D01*
X95966851Y-80073296D01*
X95969220Y-80061385D01*
X96049712Y-79740043D01*
X96053242Y-79728411D01*
X96060780Y-79707344D01*
X96164837Y-79416525D01*
X96169478Y-79405318D01*
X96311126Y-79105828D01*
X96316842Y-79095136D01*
X96487147Y-78810998D01*
X96493890Y-78800905D01*
X96691234Y-78534818D01*
X96698937Y-78525433D01*
X96921407Y-78279975D01*
X96929977Y-78271405D01*
X97175435Y-78048935D01*
X97184820Y-78041232D01*
X97450907Y-77843888D01*
X97461000Y-77837145D01*
X97745138Y-77666840D01*
X97755830Y-77661124D01*
X98055320Y-77519476D01*
X98066527Y-77514835D01*
X98378414Y-77403239D01*
X98390045Y-77399710D01*
X98711387Y-77319218D01*
X98723298Y-77316849D01*
X99050964Y-77268244D01*
X99063070Y-77267052D01*
X99396969Y-77250648D01*
X99403053Y-77250500D01*
X99465894Y-77250500D01*
X199334110Y-77250500D01*
X199396951Y-77250500D01*
X199403034Y-77250648D01*
G37*
%TD.AperFunction*%
%TD*%
M02*
